<svg width="159" height="104" viewBox="0 0 159 104" fill="none" xmlns="http://www.w3.org/2000/svg">
<g clip-path="url(#clip0_71_20)">
<mask id="mask0_71_20" style="mask-type:luminance" maskUnits="userSpaceOnUse" x="0" y="0" width="159" height="104">
<path d="M159 0H0V104H159V0Z" fill="white"/>
</mask>
<g mask="url(#mask0_71_20)">
<path d="M125.477 49C134.314 49 141.477 41.8366 141.477 33C141.477 24.1634 134.314 17 125.477 17L-30.0229 17C-38.8595 17 -46.0229 24.1634 -46.0229 33C-46.0229 41.8366 -38.8595 49 -30.0229 49L125.477 49Z" fill="white"/>
<path d="M125.477 49.5C134.59 49.5 141.977 42.1127 141.977 33C141.977 23.8873 134.59 16.5 125.477 16.5L-30.0229 16.5C-39.1357 16.5 -46.5229 23.8873 -46.5229 33C-46.5229 42.1127 -39.1357 49.5 -30.0229 49.5L125.477 49.5Z" stroke="#11181C"/>
<path d="M125.477 87.5C134.314 87.5 141.477 80.3366 141.477 71.5C141.477 62.6634 134.314 55.5 125.477 55.5L-30.0229 55.5C-38.8595 55.5 -46.0229 62.6634 -46.0229 71.5C-46.0229 80.3366 -38.8595 87.5 -30.0229 87.5H125.477Z" fill="white"/>
<path d="M125.477 88C134.59 88 141.977 80.6127 141.977 71.5C141.977 62.3873 134.59 55 125.477 55L-30.0229 55C-39.1357 55 -46.5229 62.3873 -46.5229 71.5C-46.5229 80.6127 -39.1357 88 -30.0229 88H125.477Z" stroke="#11181C"/>
<path d="M-31.0739 34.0625V38H-32.0795V29.2727H-31.0739V32.4773H-30.9886C-30.8352 32.1392 -30.6051 31.8707 -30.2983 31.6719C-29.9886 31.4702 -29.5767 31.3693 -29.0625 31.3693C-28.6165 31.3693 -28.2259 31.4588 -27.8906 31.6378C-27.5554 31.8139 -27.2955 32.0852 -27.1108 32.4517C-26.9233 32.8153 -26.8295 33.2784 -26.8295 33.8409V38H-27.8352V33.9091C-27.8352 33.3892 -27.9702 32.9872 -28.2401 32.7031C-28.5071 32.4162 -28.8778 32.2727 -29.3523 32.2727C-29.6818 32.2727 -29.9773 32.3423 -30.2386 32.4815C-30.4972 32.6207 -30.7017 32.8239 -30.8523 33.0909C-31 33.358 -31.0739 33.6818 -31.0739 34.0625ZM-22.1431 31.4545V32.3068H-25.5352V31.4545H-22.1431ZM-24.5465 29.8864H-23.5408V36.125C-23.5408 36.4091 -23.4996 36.6222 -23.4173 36.7642C-23.332 36.9034 -23.2241 36.9972 -23.0934 37.0455C-22.9599 37.0909 -22.8192 37.1136 -22.6715 37.1136C-22.5607 37.1136 -22.4698 37.108 -22.3988 37.0966C-22.3278 37.0824 -22.271 37.071 -22.2283 37.0625L-22.0238 37.9659C-22.092 37.9915 -22.1871 38.017 -22.3093 38.0426C-22.4315 38.071 -22.5863 38.0852 -22.7738 38.0852C-23.0579 38.0852 -23.3363 38.0241 -23.609 37.902C-23.8789 37.7798 -24.1033 37.5938 -24.2823 37.3438C-24.4585 37.0938 -24.5465 36.7784 -24.5465 36.3977V29.8864ZM-17.7837 31.4545V32.3068H-21.1758V31.4545H-17.7837ZM-20.1871 29.8864H-19.1815V36.125C-19.1815 36.4091 -19.1403 36.6222 -19.0579 36.7642C-18.9727 36.9034 -18.8647 36.9972 -18.734 37.0455C-18.6005 37.0909 -18.4599 37.1136 -18.3121 37.1136C-18.2013 37.1136 -18.1104 37.108 -18.0394 37.0966C-17.9684 37.0824 -17.9116 37.071 -17.869 37.0625L-17.6644 37.9659C-17.7326 37.9915 -17.8278 38.017 -17.9499 38.0426C-18.0721 38.071 -18.2269 38.0852 -18.4144 38.0852C-18.6985 38.0852 -18.9769 38.0241 -19.2496 37.902C-19.5195 37.7798 -19.744 37.5938 -19.9229 37.3438C-20.0991 37.0938 -20.1871 36.7784 -20.1871 36.3977V29.8864ZM-16.271 40.4545V31.4545H-15.2994V32.4943H-15.18C-15.1062 32.3807 -15.0039 32.2358 -14.8732 32.0597C-14.7397 31.8807 -14.5494 31.7216 -14.3022 31.5824C-14.0522 31.4403 -13.7141 31.3693 -13.288 31.3693C-12.7369 31.3693 -12.2511 31.5071 -11.8306 31.7827C-11.4102 32.0582 -11.082 32.4489 -10.8462 32.9545C-10.6104 33.4602 -10.4925 34.0568 -10.4925 34.7443C-10.4925 35.4375 -10.6104 36.0384 -10.8462 36.5469C-11.082 37.0526 -11.4087 37.4446 -11.8263 37.723C-12.244 37.9986 -12.7255 38.1364 -13.271 38.1364C-13.6914 38.1364 -14.0281 38.0668 -14.2809 37.9276C-14.5337 37.7855 -14.7283 37.625 -14.8647 37.446C-15.0011 37.2642 -15.1062 37.1136 -15.18 36.9943H-15.2653V40.4545H-16.271ZM-15.2823 34.7273C-15.2823 35.2216 -15.2099 35.6577 -15.065 36.0355C-14.9201 36.4105 -14.7085 36.7045 -14.43 36.9176C-14.1516 37.1278 -13.8107 37.233 -13.4073 37.233C-12.9869 37.233 -12.636 37.1222 -12.3548 36.9006C-12.0707 36.6761 -11.8576 36.375 -11.7156 35.9972C-11.5707 35.6165 -11.4982 35.1932 -11.4982 34.7273C-11.4982 34.267 -11.5692 33.8523 -11.7113 33.483C-11.8505 33.1108 -12.0621 32.8168 -12.3462 32.6009C-12.6275 32.3821 -12.9812 32.2727 -13.4073 32.2727C-13.8164 32.2727 -14.1602 32.3764 -14.4386 32.5838C-14.717 32.7884 -14.9272 33.0753 -15.0692 33.4446C-15.2113 33.8111 -15.2823 34.2386 -15.2823 34.7273ZM-4.32209 32.9205L-5.2255 33.1761C-5.28232 33.0256 -5.36612 32.8793 -5.47692 32.7372C-5.58487 32.5923 -5.7326 32.473 -5.9201 32.3793C-6.1076 32.2855 -6.34766 32.2386 -6.64027 32.2386C-7.04084 32.2386 -7.37464 32.331 -7.64169 32.5156C-7.90589 32.6974 -8.038 32.929 -8.038 33.2102C-8.038 33.4602 -7.94709 33.6577 -7.76527 33.8026C-7.58345 33.9474 -7.29936 34.0682 -6.913 34.1648L-5.94141 34.4034C-5.35618 34.5455 -4.9201 34.7628 -4.63317 35.0554C-4.34624 35.3452 -4.20277 35.7187 -4.20277 36.1761C-4.20277 36.5511 -4.31072 36.8864 -4.52663 37.1818C-4.7397 37.4773 -5.038 37.7102 -5.42152 37.8807C-5.80504 38.0511 -6.25107 38.1364 -6.75959 38.1364C-7.4272 38.1364 -7.97976 37.9915 -8.41726 37.7017C-8.85476 37.4119 -9.13175 36.9886 -9.24822 36.4318L-8.29368 36.1932C-8.20277 36.5455 -8.03089 36.8097 -7.77805 36.9858C-7.52237 37.1619 -7.18857 37.25 -6.77663 37.25C-6.30788 37.25 -5.93572 37.1506 -5.66016 36.9517C-5.38175 36.75 -5.24254 36.5085 -5.24254 36.2273C-5.24254 36 -5.32209 35.8097 -5.48118 35.6562C-5.64027 35.5 -5.88459 35.3835 -6.21413 35.3068L-7.30504 35.0511C-7.90447 34.9091 -8.34482 34.6889 -8.62607 34.3906C-8.90447 34.0895 -9.04368 33.7131 -9.04368 33.2614C-9.04368 32.892 -8.93999 32.5653 -8.7326 32.2812C-8.52237 31.9972 -8.23686 31.7741 -7.87607 31.6122C-7.51243 31.4503 -7.1005 31.3693 -6.64027 31.3693C-5.99254 31.3693 -5.48402 31.5114 -5.1147 31.7955C-4.74254 32.0795 -4.47834 32.4545 -4.32209 32.9205ZM-1.95597 38.0682C-2.16619 38.0682 -2.34659 37.9929 -2.49716 37.8423C-2.64773 37.6918 -2.72301 37.5114 -2.72301 37.3011C-2.72301 37.0909 -2.64773 36.9105 -2.49716 36.7599C-2.34659 36.6094 -2.16619 36.5341 -1.95597 36.5341C-1.74574 36.5341 -1.56534 36.6094 -1.41477 36.7599C-1.2642 36.9105 -1.18892 37.0909 -1.18892 37.3011C-1.18892 37.4403 -1.22443 37.5682 -1.29545 37.6847C-1.36364 37.8011 -1.45597 37.8949 -1.57244 37.9659C-1.68608 38.0341 -1.81392 38.0682 -1.95597 38.0682ZM-1.95597 33.2102C-2.16619 33.2102 -2.34659 33.1349 -2.49716 32.9844C-2.64773 32.8338 -2.72301 32.6534 -2.72301 32.4432C-2.72301 32.233 -2.64773 32.0526 -2.49716 31.902C-2.34659 31.7514 -2.16619 31.6761 -1.95597 31.6761C-1.74574 31.6761 -1.56534 31.7514 -1.41477 31.902C-1.2642 32.0526 -1.18892 32.233 -1.18892 32.4432C-1.18892 32.5824 -1.22443 32.7102 -1.29545 32.8267C-1.36364 32.9432 -1.45597 33.0369 -1.57244 33.108C-1.68608 33.1761 -1.81392 33.2102 -1.95597 33.2102ZM3.70099 28.8636L0.888494 39.3125H-0.0319602L2.78054 28.8636H3.70099ZM7.97834 28.8636L5.16584 39.3125H4.24538L7.05788 28.8636H7.97834ZM13.8068 32.9205L12.9034 33.1761C12.8466 33.0256 12.7628 32.8793 12.652 32.7372C12.544 32.5923 12.3963 32.473 12.2088 32.3793C12.0213 32.2855 11.7812 32.2386 11.4886 32.2386C11.0881 32.2386 10.7543 32.331 10.4872 32.5156C10.223 32.6974 10.0909 32.929 10.0909 33.2102C10.0909 33.4602 10.1818 33.6577 10.3636 33.8026C10.5455 33.9474 10.8295 34.0682 11.2159 34.1648L12.1875 34.4034C12.7727 34.5455 13.2088 34.7628 13.4957 35.0554C13.7827 35.3452 13.9261 35.7187 13.9261 36.1761C13.9261 36.5511 13.8182 36.8864 13.6023 37.1818C13.3892 37.4773 13.0909 37.7102 12.7074 37.8807C12.3239 38.0511 11.8778 38.1364 11.3693 38.1364C10.7017 38.1364 10.1491 37.9915 9.71165 37.7017C9.27415 37.4119 8.99716 36.9886 8.88068 36.4318L9.83523 36.1932C9.92614 36.5455 10.098 36.8097 10.3509 36.9858C10.6065 37.1619 10.9403 37.25 11.3523 37.25C11.821 37.25 12.1932 37.1506 12.4688 36.9517C12.7472 36.75 12.8864 36.5085 12.8864 36.2273C12.8864 36 12.8068 35.8097 12.6477 35.6562C12.4886 35.5 12.2443 35.3835 11.9148 35.3068L10.8239 35.0511C10.2244 34.9091 9.78409 34.6889 9.50284 34.3906C9.22443 34.0895 9.08523 33.7131 9.08523 33.2614C9.08523 32.892 9.18892 32.5653 9.39631 32.2812C9.60653 31.9972 9.89205 31.7741 10.2528 31.6122C10.6165 31.4503 11.0284 31.3693 11.4886 31.3693C12.1364 31.3693 12.6449 31.5114 13.0142 31.7955C13.3864 32.0795 13.6506 32.4545 13.8068 32.9205ZM19.565 35.3239V31.4545H20.5707V38H19.565V36.892H19.4968C19.3434 37.2244 19.1048 37.5071 18.7809 37.7401C18.457 37.9702 18.0479 38.0852 17.5536 38.0852C17.1445 38.0852 16.7809 37.9957 16.4627 37.8168C16.1445 37.6349 15.8945 37.3622 15.7127 36.9986C15.5309 36.6321 15.44 36.1705 15.44 35.6136V31.4545H16.4457V35.5455C16.4457 36.0227 16.5792 36.4034 16.8462 36.6875C17.1161 36.9716 17.4599 37.1136 17.8775 37.1136C18.1275 37.1136 18.3817 37.0497 18.6403 36.9219C18.9016 36.794 19.1204 36.598 19.2965 36.3338C19.4755 36.0696 19.565 35.733 19.565 35.3239ZM22.549 38V29.2727H23.5547V32.4943H23.6399C23.7138 32.3807 23.8161 32.2358 23.9467 32.0597C24.0803 31.8807 24.2706 31.7216 24.5178 31.5824C24.7678 31.4403 25.1058 31.3693 25.532 31.3693C26.0831 31.3693 26.5689 31.5071 26.9893 31.7827C27.4098 32.0582 27.7379 32.4489 27.9737 32.9545C28.2095 33.4602 28.3274 34.0568 28.3274 34.7443C28.3274 35.4375 28.2095 36.0384 27.9737 36.5469C27.7379 37.0526 27.4112 37.4446 26.9936 37.723C26.576 37.9986 26.0945 38.1364 25.549 38.1364C25.1286 38.1364 24.7919 38.0668 24.5391 37.9276C24.2862 37.7855 24.0916 37.625 23.9553 37.446C23.8189 37.2642 23.7138 37.1136 23.6399 36.9943H23.5206V38H22.549ZM23.5376 34.7273C23.5376 35.2216 23.6101 35.6577 23.755 36.0355C23.8999 36.4105 24.1115 36.7045 24.3899 36.9176C24.6683 37.1278 25.0092 37.233 25.4126 37.233C25.8331 37.233 26.1839 37.1222 26.4652 36.9006C26.7493 36.6761 26.9624 36.375 27.1044 35.9972C27.2493 35.6165 27.3217 35.1932 27.3217 34.7273C27.3217 34.267 27.2507 33.8523 27.1087 33.483C26.9695 33.1108 26.7578 32.8168 26.4737 32.6009C26.1925 32.3821 25.8388 32.2727 25.4126 32.2727C25.0036 32.2727 24.6598 32.3764 24.3814 32.5838C24.103 32.7884 23.8928 33.0753 23.7507 33.4446C23.6087 33.8111 23.5376 34.2386 23.5376 34.7273ZM32.3374 38.1364C31.7919 38.1364 31.3104 37.9986 30.8928 37.723C30.4751 37.4446 30.1484 37.0526 29.9126 36.5469C29.6768 36.0384 29.5589 35.4375 29.5589 34.7443C29.5589 34.0568 29.6768 33.4602 29.9126 32.9545C30.1484 32.4489 30.4766 32.0582 30.897 31.7827C31.3175 31.5071 31.8033 31.3693 32.3544 31.3693C32.7805 31.3693 33.1172 31.4403 33.3643 31.5824C33.6143 31.7216 33.8047 31.8807 33.9354 32.0597C34.0689 32.2358 34.1726 32.3807 34.2464 32.4943H34.3317V29.2727H35.3374V38H34.3658V36.9943H34.2464C34.1726 37.1136 34.0675 37.2642 33.9311 37.446C33.7947 37.625 33.6001 37.7855 33.3473 37.9276C33.0945 38.0668 32.7578 38.1364 32.3374 38.1364ZM32.4737 37.233C32.8771 37.233 33.218 37.1278 33.4964 36.9176C33.7749 36.7045 33.9865 36.4105 34.1314 36.0355C34.2763 35.6577 34.3487 35.2216 34.3487 34.7273C34.3487 34.2386 34.2777 33.8111 34.1357 33.4446C33.9936 33.0753 33.7834 32.7884 33.505 32.5838C33.2266 32.3764 32.8828 32.2727 32.4737 32.2727C32.0476 32.2727 31.6925 32.3821 31.4084 32.6009C31.1271 32.8168 30.9155 33.1108 30.7734 33.483C30.6342 33.8523 30.5646 34.267 30.5646 34.7273C30.5646 35.1932 30.6357 35.6165 30.7777 35.9972C30.9226 36.375 31.1357 36.6761 31.4169 36.9006C31.701 37.1222 32.0533 37.233 32.4737 37.233ZM39.978 38.1364C39.3871 38.1364 38.8686 37.9957 38.4226 37.7145C37.9794 37.4332 37.6328 37.0398 37.3828 36.5341C37.1357 36.0284 37.0121 35.4375 37.0121 34.7614C37.0121 34.0795 37.1357 33.4844 37.3828 32.9759C37.6328 32.4673 37.9794 32.0724 38.4226 31.7912C38.8686 31.5099 39.3871 31.3693 39.978 31.3693C40.5689 31.3693 41.0859 31.5099 41.5291 31.7912C41.9751 32.0724 42.3217 32.4673 42.5689 32.9759C42.8189 33.4844 42.9439 34.0795 42.9439 34.7614C42.9439 35.4375 42.8189 36.0284 42.5689 36.5341C42.3217 37.0398 41.9751 37.4332 41.5291 37.7145C41.0859 37.9957 40.5689 38.1364 39.978 38.1364ZM39.978 37.233C40.4268 37.233 40.7962 37.1179 41.0859 36.8878C41.3757 36.6577 41.5902 36.3551 41.7294 35.9801C41.8686 35.6051 41.9382 35.1989 41.9382 34.7614C41.9382 34.3239 41.8686 33.9162 41.7294 33.5384C41.5902 33.1605 41.3757 32.8551 41.0859 32.6222C40.7962 32.3892 40.4268 32.2727 39.978 32.2727C39.5291 32.2727 39.1598 32.3892 38.87 32.6222C38.5803 32.8551 38.3658 33.1605 38.2266 33.5384C38.0874 33.9162 38.0178 34.3239 38.0178 34.7614C38.0178 35.1989 38.0874 35.6051 38.2266 35.9801C38.3658 36.3551 38.5803 36.6577 38.87 36.8878C39.1598 37.1179 39.5291 37.233 39.978 37.233ZM44.479 38V31.4545H45.4506V32.4773H45.5359C45.6722 32.1278 45.8924 31.8565 46.1964 31.6634C46.5004 31.4673 46.8654 31.3693 47.2915 31.3693C47.7234 31.3693 48.0827 31.4673 48.3697 31.6634C48.6594 31.8565 48.8853 32.1278 49.0472 32.4773H49.1154C49.283 32.1392 49.5344 31.8707 49.8697 31.6719C50.2049 31.4702 50.6069 31.3693 51.0756 31.3693C51.6609 31.3693 52.1396 31.5526 52.5117 31.919C52.8839 32.2827 53.07 32.8494 53.07 33.6193V38H52.0643V33.6193C52.0643 33.1364 51.9322 32.7912 51.668 32.5838C51.4038 32.3764 51.0927 32.2727 50.7347 32.2727C50.2745 32.2727 49.918 32.4119 49.6651 32.6903C49.4123 32.9659 49.2859 33.3153 49.2859 33.7386V38H48.2631V33.517C48.2631 33.1449 48.1424 32.8452 47.9009 32.6179C47.6594 32.3878 47.3484 32.2727 46.9677 32.2727C46.7063 32.2727 46.462 32.3423 46.2347 32.4815C46.0103 32.6207 45.8285 32.8139 45.6893 33.0611C45.5529 33.3054 45.4847 33.5881 45.4847 33.9091V38H44.479ZM56.8349 38.1534C56.4201 38.1534 56.0437 38.0753 55.7056 37.919C55.3675 37.7599 55.0991 37.5312 54.9002 37.233C54.7013 36.9318 54.6019 36.5682 54.6019 36.142C54.6019 35.767 54.6758 35.4631 54.8235 35.2301C54.9712 34.9943 55.1687 34.8097 55.4158 34.6761C55.663 34.5426 55.9357 34.4432 56.234 34.3778C56.5352 34.3097 56.8377 34.2557 57.1417 34.2159C57.5394 34.1648 57.8619 34.1264 58.109 34.1009C58.359 34.0724 58.5408 34.0256 58.6545 33.9602C58.771 33.8949 58.8292 33.7812 58.8292 33.6193V33.5852C58.8292 33.1648 58.7141 32.8381 58.484 32.6051C58.2567 32.3722 57.9116 32.2557 57.4485 32.2557C56.9684 32.2557 56.592 32.3608 56.3192 32.571C56.0465 32.7812 55.8548 33.0057 55.744 33.2443L54.7894 32.9034C54.9599 32.5057 55.1871 32.196 55.4712 31.9744C55.7582 31.75 56.0707 31.5937 56.4087 31.5057C56.7496 31.4148 57.0849 31.3693 57.4144 31.3693C57.6246 31.3693 57.8661 31.3949 58.1388 31.446C58.4144 31.4943 58.68 31.5952 58.9357 31.7486C59.1942 31.902 59.4087 32.1335 59.5792 32.4432C59.7496 32.7528 59.8349 33.1676 59.8349 33.6875V38H58.8292V37.1136H58.7781C58.7099 37.2557 58.5962 37.4077 58.4371 37.5696C58.2781 37.7315 58.0664 37.8693 57.8022 37.983C57.538 38.0966 57.2156 38.1534 56.8349 38.1534ZM56.9883 37.25C57.386 37.25 57.7212 37.1719 57.994 37.0156C58.2695 36.8594 58.4769 36.6577 58.6161 36.4105C58.7582 36.1634 58.8292 35.9034 58.8292 35.6307V34.7102C58.7866 34.7614 58.6928 34.8082 58.5479 34.8509C58.4059 34.8906 58.2411 34.9261 58.0536 34.9574C57.869 34.9858 57.6886 35.0114 57.5124 35.0341C57.3391 35.054 57.1985 35.071 57.0906 35.0852C56.8292 35.1193 56.5849 35.1747 56.3576 35.2514C56.1332 35.3253 55.9513 35.4375 55.8121 35.5881C55.6758 35.7358 55.6076 35.9375 55.6076 36.1932C55.6076 36.5426 55.7369 36.8068 55.9954 36.9858C56.2567 37.1619 56.5877 37.25 56.9883 37.25ZM61.6705 38V31.4545H62.6761V38H61.6705ZM62.1818 30.3636C61.9858 30.3636 61.8168 30.2969 61.6747 30.1634C61.5355 30.0298 61.4659 29.8693 61.4659 29.6818C61.4659 29.4943 61.5355 29.3338 61.6747 29.2003C61.8168 29.0668 61.9858 29 62.1818 29C62.3778 29 62.5455 29.0668 62.6847 29.2003C62.8267 29.3338 62.8977 29.4943 62.8977 29.6818C62.8977 29.8693 62.8267 30.0298 62.6847 30.1634C62.5455 30.2969 62.3778 30.3636 62.1818 30.3636ZM65.5238 34.0625V38H64.5181V31.4545H65.4897V32.4773H65.5749C65.7283 32.1449 65.9613 31.8778 66.2738 31.6761C66.5863 31.4716 66.9897 31.3693 67.484 31.3693C67.9272 31.3693 68.315 31.4602 68.6474 31.642C68.9798 31.821 69.2383 32.0938 69.4229 32.4602C69.6076 32.8239 69.6999 33.2841 69.6999 33.8409V38H68.6942V33.9091C68.6942 33.3949 68.5607 32.9943 68.2937 32.7074C68.0266 32.4176 67.6602 32.2727 67.1942 32.2727C66.8732 32.2727 66.5863 32.3423 66.3335 32.4815C66.0835 32.6207 65.886 32.8239 65.7411 33.0909C65.5962 33.358 65.5238 33.6818 65.5238 34.0625ZM72.2706 38.0682C72.0604 38.0682 71.88 37.9929 71.7294 37.8423C71.5788 37.6918 71.5036 37.5114 71.5036 37.3011C71.5036 37.0909 71.5788 36.9105 71.7294 36.7599C71.88 36.6094 72.0604 36.5341 72.2706 36.5341C72.4808 36.5341 72.6612 36.6094 72.8118 36.7599C72.9624 36.9105 73.0376 37.0909 73.0376 37.3011C73.0376 37.4403 73.0021 37.5682 72.9311 37.6847C72.8629 37.8011 72.7706 37.8949 72.6541 37.9659C72.5405 38.0341 72.4126 38.0682 72.2706 38.0682ZM74.8423 40.4545V31.4545H75.8139V32.4943H75.9332C76.0071 32.3807 76.1094 32.2358 76.2401 32.0597C76.3736 31.8807 76.5639 31.7216 76.8111 31.5824C77.0611 31.4403 77.3991 31.3693 77.8253 31.3693C78.3764 31.3693 78.8622 31.5071 79.2827 31.7827C79.7031 32.0582 80.0313 32.4489 80.267 32.9545C80.5028 33.4602 80.6207 34.0568 80.6207 34.7443C80.6207 35.4375 80.5028 36.0384 80.267 36.5469C80.0313 37.0526 79.7045 37.4446 79.2869 37.723C78.8693 37.9986 78.3878 38.1364 77.8423 38.1364C77.4219 38.1364 77.0852 38.0668 76.8324 37.9276C76.5795 37.7855 76.3849 37.625 76.2486 37.446C76.1122 37.2642 76.0071 37.1136 75.9332 36.9943H75.848V40.4545H74.8423ZM75.831 34.7273C75.831 35.2216 75.9034 35.6577 76.0483 36.0355C76.1932 36.4105 76.4048 36.7045 76.6832 36.9176C76.9616 37.1278 77.3026 37.233 77.706 37.233C78.1264 37.233 78.4773 37.1222 78.7585 36.9006C79.0426 36.6761 79.2557 36.375 79.3977 35.9972C79.5426 35.6165 79.6151 35.1932 79.6151 34.7273C79.6151 34.267 79.544 33.8523 79.402 33.483C79.2628 33.1108 79.0511 32.8168 78.767 32.6009C78.4858 32.3821 78.1321 32.2727 77.706 32.2727C77.2969 32.2727 76.9531 32.3764 76.6747 32.5838C76.3963 32.7884 76.1861 33.0753 76.044 33.4446C75.902 33.8111 75.831 34.2386 75.831 34.7273ZM84.081 38.1534C83.6662 38.1534 83.2898 38.0753 82.9517 37.919C82.6136 37.7599 82.3452 37.5312 82.1463 37.233C81.9474 36.9318 81.848 36.5682 81.848 36.142C81.848 35.767 81.9219 35.4631 82.0696 35.2301C82.2173 34.9943 82.4148 34.8097 82.6619 34.6761C82.9091 34.5426 83.1818 34.4432 83.4801 34.3778C83.7813 34.3097 84.0838 34.2557 84.3878 34.2159C84.7855 34.1648 85.108 34.1264 85.3551 34.1009C85.6051 34.0724 85.7869 34.0256 85.9006 33.9602C86.017 33.8949 86.0753 33.7812 86.0753 33.6193V33.5852C86.0753 33.1648 85.9602 32.8381 85.7301 32.6051C85.5028 32.3722 85.1577 32.2557 84.6946 32.2557C84.2145 32.2557 83.8381 32.3608 83.5653 32.571C83.2926 32.7812 83.1009 33.0057 82.9901 33.2443L82.0355 32.9034C82.206 32.5057 82.4332 32.196 82.7173 31.9744C83.0043 31.75 83.3168 31.5937 83.6548 31.5057C83.9957 31.4148 84.331 31.3693 84.6605 31.3693C84.8707 31.3693 85.1122 31.3949 85.3849 31.446C85.6605 31.4943 85.9261 31.5952 86.1818 31.7486C86.4403 31.902 86.6548 32.1335 86.8253 32.4432C86.9957 32.7528 87.081 33.1676 87.081 33.6875V38H86.0753V37.1136H86.0241C85.956 37.2557 85.8423 37.4077 85.6832 37.5696C85.5241 37.7315 85.3125 37.8693 85.0483 37.983C84.7841 38.0966 84.4616 38.1534 84.081 38.1534ZM84.2344 37.25C84.6321 37.25 84.9673 37.1719 85.2401 37.0156C85.5156 36.8594 85.723 36.6577 85.8622 36.4105C86.0043 36.1634 86.0753 35.9034 86.0753 35.6307V34.7102C86.0327 34.7614 85.9389 34.8082 85.794 34.8509C85.652 34.8906 85.4872 34.9261 85.2997 34.9574C85.1151 34.9858 84.9347 35.0114 84.7585 35.0341C84.5852 35.054 84.4446 35.071 84.3366 35.0852C84.0753 35.1193 83.831 35.1747 83.6037 35.2514C83.3793 35.3253 83.1974 35.4375 83.0582 35.5881C82.9219 35.7358 82.8537 35.9375 82.8537 36.1932C82.8537 36.5426 82.983 36.8068 83.2415 36.9858C83.5028 37.1619 83.8338 37.25 84.2344 37.25ZM89.3299 40.4545C89.1594 40.4545 89.0075 40.4403 88.8739 40.4119C88.7404 40.3864 88.6481 40.3608 88.5969 40.3352L88.8526 39.4489C89.0969 39.5114 89.3129 39.5341 89.5004 39.517C89.6879 39.5 89.854 39.4162 89.9989 39.2656C90.1467 39.1179 90.2816 38.8778 90.4038 38.5455L90.5913 38.0341L88.1708 31.4545H89.2617L91.0685 36.6705H91.1367L92.9435 31.4545H94.0344L91.256 38.9545C91.131 39.2926 90.9762 39.5724 90.7915 39.794C90.6069 40.0185 90.3924 40.1847 90.1481 40.2926C89.9066 40.4006 89.6339 40.4545 89.3299 40.4545ZM95.4982 38V29.2727H96.5039V32.4943H96.5891C96.663 32.3807 96.7653 32.2358 96.896 32.0597C97.0295 31.8807 97.2198 31.7216 97.467 31.5824C97.717 31.4403 98.055 31.3693 98.4812 31.3693C99.0323 31.3693 99.5181 31.5071 99.9386 31.7827C100.359 32.0582 100.687 32.4489 100.923 32.9545C101.159 33.4602 101.277 34.0568 101.277 34.7443C101.277 35.4375 101.159 36.0384 100.923 36.5469C100.687 37.0526 100.36 37.4446 99.9428 37.723C99.5252 37.9986 99.0437 38.1364 98.4982 38.1364C98.0778 38.1364 97.7411 38.0668 97.4883 37.9276C97.2354 37.7855 97.0408 37.625 96.9045 37.446C96.7681 37.2642 96.663 37.1136 96.5891 36.9943H96.4698V38H95.4982ZM96.4869 34.7273C96.4869 35.2216 96.5593 35.6577 96.7042 36.0355C96.8491 36.4105 97.0607 36.7045 97.3391 36.9176C97.6175 37.1278 97.9585 37.233 98.3619 37.233C98.7823 37.233 99.1332 37.1222 99.4144 36.9006C99.6985 36.6761 99.9116 36.375 100.054 35.9972C100.199 35.6165 100.271 35.1932 100.271 34.7273C100.271 34.267 100.2 33.8523 100.058 33.483C99.9187 33.1108 99.707 32.8168 99.4229 32.6009C99.1417 32.3821 98.788 32.2727 98.3619 32.2727C97.9528 32.2727 97.609 32.3764 97.3306 32.5838C97.0522 32.7884 96.842 33.0753 96.6999 33.4446C96.5579 33.8111 96.4869 34.2386 96.4869 34.7273ZM102.815 38V31.4545H103.821V38H102.815ZM103.326 30.3636C103.13 30.3636 102.961 30.2969 102.819 30.1634C102.68 30.0298 102.61 29.8693 102.61 29.6818C102.61 29.4943 102.68 29.3338 102.819 29.2003C102.961 29.0668 103.13 29 103.326 29C103.522 29 103.69 29.0668 103.829 29.2003C103.971 29.3338 104.042 29.4943 104.042 29.6818C104.042 29.8693 103.971 30.0298 103.829 30.1634C103.69 30.2969 103.522 30.3636 103.326 30.3636ZM106.668 29.2727V38H105.663V29.2727H106.668ZM109.516 29.2727V38H108.51V29.2727H109.516ZM112.091 38.0682C111.881 38.0682 111.7 37.9929 111.55 37.8423C111.399 37.6918 111.324 37.5114 111.324 37.3011C111.324 37.0909 111.399 36.9105 111.55 36.7599C111.7 36.6094 111.881 36.5341 112.091 36.5341C112.301 36.5341 112.482 36.6094 112.632 36.7599C112.783 36.9105 112.858 37.0909 112.858 37.3011C112.858 37.4403 112.822 37.5682 112.751 37.6847C112.683 37.8011 112.591 37.8949 112.474 37.9659C112.361 38.0341 112.233 38.0682 112.091 38.0682ZM117.134 38.1364C116.589 38.1364 116.107 37.9986 115.69 37.723C115.272 37.4446 114.945 37.0526 114.71 36.5469C114.474 36.0384 114.356 35.4375 114.356 34.7443C114.356 34.0568 114.474 33.4602 114.71 32.9545C114.945 32.4489 115.273 32.0582 115.694 31.7827C116.114 31.5071 116.6 31.3693 117.151 31.3693C117.577 31.3693 117.914 31.4403 118.161 31.5824C118.411 31.7216 118.602 31.8807 118.732 32.0597C118.866 32.2358 118.969 32.3807 119.043 32.4943H119.129V29.2727H120.134V38H119.163V36.9943H119.043C118.969 37.1136 118.864 37.2642 118.728 37.446C118.592 37.625 118.397 37.7855 118.144 37.9276C117.891 38.0668 117.555 38.1364 117.134 38.1364ZM117.271 37.233C117.674 37.233 118.015 37.1278 118.293 36.9176C118.572 36.7045 118.783 36.4105 118.928 36.0355C119.073 35.6577 119.146 35.2216 119.146 34.7273C119.146 34.2386 119.075 33.8111 118.933 33.4446C118.79 33.0753 118.58 32.7884 118.302 32.5838C118.023 32.3764 117.68 32.2727 117.271 32.2727C116.844 32.2727 116.489 32.3821 116.205 32.6009C115.924 32.8168 115.712 33.1108 115.57 33.483C115.431 33.8523 115.362 34.267 115.362 34.7273C115.362 35.1932 115.433 35.6165 115.575 35.9972C115.719 36.375 115.933 36.6761 116.214 36.9006C116.498 37.1222 116.85 37.233 117.271 37.233ZM124.86 38.1364C124.229 38.1364 123.685 37.9972 123.228 37.7188C122.773 37.4375 122.423 37.0455 122.175 36.5426C121.931 36.0369 121.809 35.4489 121.809 34.7784C121.809 34.108 121.931 33.517 122.175 33.0057C122.423 32.4915 122.766 32.0909 123.207 31.804C123.65 31.5142 124.167 31.3693 124.758 31.3693C125.099 31.3693 125.435 31.4261 125.768 31.5398C126.1 31.6534 126.403 31.8381 126.675 32.0938C126.948 32.3466 127.165 32.6818 127.327 33.0994C127.489 33.517 127.57 34.0312 127.57 34.642V35.0682H122.525V34.1989H126.548C126.548 33.8295 126.474 33.5 126.326 33.2102C126.181 32.9205 125.974 32.6918 125.704 32.5241C125.437 32.3565 125.121 32.2727 124.758 32.2727C124.357 32.2727 124.011 32.3722 123.718 32.571C123.428 32.767 123.205 33.0227 123.049 33.3381C122.893 33.6534 122.815 33.9915 122.815 34.3523V34.9318C122.815 35.4261 122.9 35.8452 123.07 36.1889C123.244 36.5298 123.484 36.7898 123.79 36.9688C124.097 37.1449 124.454 37.233 124.86 37.233C125.124 37.233 125.363 37.196 125.576 37.1222C125.792 37.0455 125.978 36.9318 126.134 36.7812C126.29 36.6278 126.411 36.4375 126.496 36.2102L127.468 36.483C127.366 36.8125 127.194 37.1023 126.952 37.3523C126.711 37.5994 126.413 37.7926 126.058 37.9318C125.702 38.0682 125.303 38.1364 124.86 38.1364ZM134.253 31.4545L131.833 38H130.81L128.39 31.4545H129.48L131.287 36.6705H131.355L133.162 31.4545H134.253Z" fill="black"/>
<path d="M1.92614 72.0625V76H0.920455V67.2727H1.92614V70.4773H2.01136C2.16477 70.1392 2.39489 69.8707 2.7017 69.6719C3.01136 69.4702 3.4233 69.3693 3.9375 69.3693C4.38352 69.3693 4.77415 69.4588 5.10938 69.6378C5.4446 69.8139 5.70455 70.0852 5.8892 70.4517C6.0767 70.8153 6.17045 71.2784 6.17045 71.8409V76H5.16477V71.9091C5.16477 71.3892 5.02983 70.9872 4.75994 70.7031C4.4929 70.4162 4.12216 70.2727 3.64773 70.2727C3.31818 70.2727 3.02273 70.3423 2.76136 70.4815C2.50284 70.6207 2.2983 70.8239 2.14773 71.0909C2 71.358 1.92614 71.6818 1.92614 72.0625ZM10.8569 69.4545V70.3068H7.46484V69.4545H10.8569ZM8.45348 67.8864H9.45916V74.125C9.45916 74.4091 9.50036 74.6222 9.58274 74.7642C9.66797 74.9034 9.77592 74.9972 9.90661 75.0455C10.0401 75.0909 10.1808 75.1136 10.3285 75.1136C10.4393 75.1136 10.5302 75.108 10.6012 75.0966C10.6722 75.0824 10.729 75.071 10.7717 75.0625L10.9762 75.9659C10.908 75.9915 10.8129 76.017 10.6907 76.0426C10.5685 76.071 10.4137 76.0852 10.2262 76.0852C9.94212 76.0852 9.66371 76.0241 9.39098 75.902C9.12109 75.7798 8.89666 75.5938 8.71768 75.3438C8.54155 75.0938 8.45348 74.7784 8.45348 74.3977V67.8864ZM15.2163 69.4545V70.3068H11.8242V69.4545H15.2163ZM12.8129 67.8864H13.8185V74.125C13.8185 74.4091 13.8597 74.6222 13.9421 74.7642C14.0273 74.9034 14.1353 74.9972 14.266 75.0455C14.3995 75.0909 14.5401 75.1136 14.6879 75.1136C14.7987 75.1136 14.8896 75.108 14.9606 75.0966C15.0316 75.0824 15.0884 75.071 15.131 75.0625L15.3356 75.9659C15.2674 75.9915 15.1722 76.017 15.0501 76.0426C14.9279 76.071 14.7731 76.0852 14.5856 76.0852C14.3015 76.0852 14.0231 76.0241 13.7504 75.902C13.4805 75.7798 13.256 75.5938 13.0771 75.3438C12.9009 75.0938 12.8129 74.7784 12.8129 74.3977V67.8864ZM16.729 78.4545V69.4545H17.7006V70.4943H17.82C17.8938 70.3807 17.9961 70.2358 18.1268 70.0597C18.2603 69.8807 18.4506 69.7216 18.6978 69.5824C18.9478 69.4403 19.2859 69.3693 19.712 69.3693C20.2631 69.3693 20.7489 69.5071 21.1694 69.7827C21.5898 70.0582 21.918 70.4489 22.1538 70.9545C22.3896 71.4602 22.5075 72.0568 22.5075 72.7443C22.5075 73.4375 22.3896 74.0384 22.1538 74.5469C21.918 75.0526 21.5913 75.4446 21.1737 75.723C20.756 75.9986 20.2745 76.1364 19.729 76.1364C19.3086 76.1364 18.9719 76.0668 18.7191 75.9276C18.4663 75.7855 18.2717 75.625 18.1353 75.446C17.9989 75.2642 17.8938 75.1136 17.82 74.9943H17.7347V78.4545H16.729ZM17.7177 72.7273C17.7177 73.2216 17.7901 73.6577 17.935 74.0355C18.0799 74.4105 18.2915 74.7045 18.57 74.9176C18.8484 75.1278 19.1893 75.233 19.5927 75.233C20.0131 75.233 20.364 75.1222 20.6452 74.9006C20.9293 74.6761 21.1424 74.375 21.2844 73.9972C21.4293 73.6165 21.5018 73.1932 21.5018 72.7273C21.5018 72.267 21.4308 71.8523 21.2887 71.483C21.1495 71.1108 20.9379 70.8168 20.6538 70.6009C20.3725 70.3821 20.0188 70.2727 19.5927 70.2727C19.1836 70.2727 18.8398 70.3764 18.5614 70.5838C18.283 70.7884 18.0728 71.0753 17.9308 71.4446C17.7887 71.8111 17.7177 72.2386 17.7177 72.7273ZM28.6779 70.9205L27.7745 71.1761C27.7177 71.0256 27.6339 70.8793 27.5231 70.7372C27.4151 70.5923 27.2674 70.473 27.0799 70.3793C26.8924 70.2855 26.6523 70.2386 26.3597 70.2386C25.9592 70.2386 25.6254 70.331 25.3583 70.5156C25.0941 70.6974 24.962 70.929 24.962 71.2102C24.962 71.4602 25.0529 71.6577 25.2347 71.8026C25.4165 71.9474 25.7006 72.0682 26.087 72.1648L27.0586 72.4034C27.6438 72.5455 28.0799 72.7628 28.3668 73.0554C28.6538 73.3452 28.7972 73.7187 28.7972 74.1761C28.7972 74.5511 28.6893 74.8864 28.4734 75.1818C28.2603 75.4773 27.962 75.7102 27.5785 75.8807C27.195 76.0511 26.7489 76.1364 26.2404 76.1364C25.5728 76.1364 25.0202 75.9915 24.5827 75.7017C24.1452 75.4119 23.8683 74.9886 23.7518 74.4318L24.7063 74.1932C24.7972 74.5455 24.9691 74.8097 25.2219 74.9858C25.4776 75.1619 25.8114 75.25 26.2234 75.25C26.6921 75.25 27.0643 75.1506 27.3398 74.9517C27.6183 74.75 27.7575 74.5085 27.7575 74.2273C27.7575 74 27.6779 73.8097 27.5188 73.6562C27.3597 73.5 27.1154 73.3835 26.7859 73.3068L25.695 73.0511C25.0955 72.9091 24.6552 72.6889 24.3739 72.3906C24.0955 72.0895 23.9563 71.7131 23.9563 71.2614C23.9563 70.892 24.06 70.5653 24.2674 70.2812C24.4776 69.9972 24.7631 69.7741 25.1239 69.6122C25.4876 69.4503 25.8995 69.3693 26.3597 69.3693C27.0075 69.3693 27.516 69.5114 27.8853 69.7955C28.2575 70.0795 28.5217 70.4545 28.6779 70.9205ZM31.044 76.0682C30.8338 76.0682 30.6534 75.9929 30.5028 75.8423C30.3523 75.6918 30.277 75.5114 30.277 75.3011C30.277 75.0909 30.3523 74.9105 30.5028 74.7599C30.6534 74.6094 30.8338 74.5341 31.044 74.5341C31.2543 74.5341 31.4347 74.6094 31.5852 74.7599C31.7358 74.9105 31.8111 75.0909 31.8111 75.3011C31.8111 75.4403 31.7756 75.5682 31.7045 75.6847C31.6364 75.8011 31.544 75.8949 31.4276 75.9659C31.3139 76.0341 31.1861 76.0682 31.044 76.0682ZM31.044 71.2102C30.8338 71.2102 30.6534 71.1349 30.5028 70.9844C30.3523 70.8338 30.277 70.6534 30.277 70.4432C30.277 70.233 30.3523 70.0526 30.5028 69.902C30.6534 69.7514 30.8338 69.6761 31.044 69.6761C31.2543 69.6761 31.4347 69.7514 31.5852 69.902C31.7358 70.0526 31.8111 70.233 31.8111 70.4432C31.8111 70.5824 31.7756 70.7102 31.7045 70.8267C31.6364 70.9432 31.544 71.0369 31.4276 71.108C31.3139 71.1761 31.1861 71.2102 31.044 71.2102ZM36.701 66.8636L33.8885 77.3125H32.968L35.7805 66.8636H36.701ZM40.9783 66.8636L38.1658 77.3125H37.2454L40.0579 66.8636H40.9783ZM42.8182 78.4545C42.6477 78.4545 42.4957 78.4403 42.3622 78.4119C42.2287 78.3864 42.1364 78.3608 42.0852 78.3352L42.3409 77.4489C42.5852 77.5114 42.8011 77.5341 42.9886 77.517C43.1761 77.5 43.3423 77.4162 43.4872 77.2656C43.6349 77.1179 43.7699 76.8778 43.892 76.5455L44.0795 76.0341L41.6591 69.4545H42.75L44.5568 74.6705H44.625L46.4318 69.4545H47.5227L44.7443 76.9545C44.6193 77.2926 44.4645 77.5724 44.2798 77.794C44.0952 78.0185 43.8807 78.1847 43.6364 78.2926C43.3949 78.4006 43.1222 78.4545 42.8182 78.4545ZM51.2749 76.1364C50.6839 76.1364 50.1655 75.9957 49.7195 75.7145C49.2763 75.4332 48.9297 75.0398 48.6797 74.5341C48.4325 74.0284 48.3089 73.4375 48.3089 72.7614C48.3089 72.0795 48.4325 71.4844 48.6797 70.9759C48.9297 70.4673 49.2763 70.0724 49.7195 69.7912C50.1655 69.5099 50.6839 69.3693 51.2749 69.3693C51.8658 69.3693 52.3828 69.5099 52.826 69.7912C53.272 70.0724 53.6186 70.4673 53.8658 70.9759C54.1158 71.4844 54.2408 72.0795 54.2408 72.7614C54.2408 73.4375 54.1158 74.0284 53.8658 74.5341C53.6186 75.0398 53.272 75.4332 52.826 75.7145C52.3828 75.9957 51.8658 76.1364 51.2749 76.1364ZM51.2749 75.233C51.7237 75.233 52.093 75.1179 52.3828 74.8878C52.6726 74.6577 52.8871 74.3551 53.0263 73.9801C53.1655 73.6051 53.2351 73.1989 53.2351 72.7614C53.2351 72.3239 53.1655 71.9162 53.0263 71.5384C52.8871 71.1605 52.6726 70.8551 52.3828 70.6222C52.093 70.3892 51.7237 70.2727 51.2749 70.2727C50.826 70.2727 50.4567 70.3892 50.1669 70.6222C49.8771 70.8551 49.6626 71.1605 49.5234 71.5384C49.3842 71.9162 49.3146 72.3239 49.3146 72.7614C49.3146 73.1989 49.3842 73.6051 49.5234 73.9801C49.6626 74.3551 49.8771 74.6577 50.1669 74.8878C50.4567 75.1179 50.826 75.233 51.2749 75.233ZM59.9009 73.3239V69.4545H60.9066V76H59.9009V74.892H59.8327C59.6793 75.2244 59.4407 75.5071 59.1168 75.7401C58.793 75.9702 58.3839 76.0852 57.8896 76.0852C57.4805 76.0852 57.1168 75.9957 56.7987 75.8168C56.4805 75.6349 56.2305 75.3622 56.0487 74.9986C55.8668 74.6321 55.7759 74.1705 55.7759 73.6136V69.4545H56.7816V73.5455C56.7816 74.0227 56.9151 74.4034 57.1822 74.6875C57.4521 74.9716 57.7958 75.1136 58.2134 75.1136C58.4634 75.1136 58.7177 75.0497 58.9762 74.9219C59.2376 74.794 59.4563 74.598 59.6325 74.3338C59.8114 74.0696 59.9009 73.733 59.9009 73.3239ZM62.7486 76V69.4545H63.7202V70.4432H63.7884C63.9077 70.1193 64.1236 69.8565 64.4361 69.6548C64.7486 69.4531 65.1009 69.3523 65.4929 69.3523C65.5668 69.3523 65.6591 69.3537 65.7699 69.3565C65.8807 69.3594 65.9645 69.3636 66.0213 69.3693V70.392C65.9872 70.3835 65.9091 70.3707 65.7869 70.3537C65.6676 70.3338 65.5412 70.3239 65.4077 70.3239C65.0895 70.3239 64.8054 70.3906 64.5554 70.5241C64.3082 70.6548 64.1122 70.8366 63.9673 71.0696C63.8253 71.2997 63.7543 71.5625 63.7543 71.858V76H62.7486ZM69.4858 76.1364C68.9403 76.1364 68.4588 75.9986 68.0412 75.723C67.6236 75.4446 67.2969 75.0526 67.0611 74.5469C66.8253 74.0384 66.7074 73.4375 66.7074 72.7443C66.7074 72.0568 66.8253 71.4602 67.0611 70.9545C67.2969 70.4489 67.625 70.0582 68.0455 69.7827C68.4659 69.5071 68.9517 69.3693 69.5028 69.3693C69.929 69.3693 70.2656 69.4403 70.5128 69.5824C70.7628 69.7216 70.9531 69.8807 71.0838 70.0597C71.2173 70.2358 71.321 70.3807 71.3949 70.4943H71.4801V67.2727H72.4858V76H71.5142V74.9943H71.3949C71.321 75.1136 71.2159 75.2642 71.0795 75.446C70.9432 75.625 70.7486 75.7855 70.4957 75.9276C70.2429 76.0668 69.9063 76.1364 69.4858 76.1364ZM69.6222 75.233C70.0256 75.233 70.3665 75.1278 70.6449 74.9176C70.9233 74.7045 71.1349 74.4105 71.2798 74.0355C71.4247 73.6577 71.4972 73.2216 71.4972 72.7273C71.4972 72.2386 71.4261 71.8111 71.2841 71.4446C71.142 71.0753 70.9318 70.7884 70.6534 70.5838C70.375 70.3764 70.0313 70.2727 69.6222 70.2727C69.196 70.2727 68.8409 70.3821 68.5568 70.6009C68.2756 70.8168 68.0639 71.1108 67.9219 71.483C67.7827 71.8523 67.7131 72.267 67.7131 72.7273C67.7131 73.1932 67.7841 73.6165 67.9261 73.9972C68.071 74.375 68.2841 74.6761 68.5653 74.9006C68.8494 75.1222 69.2017 75.233 69.6222 75.233ZM77.1264 76.1364C76.5355 76.1364 76.017 75.9957 75.571 75.7145C75.1278 75.4332 74.7812 75.0398 74.5312 74.5341C74.2841 74.0284 74.1605 73.4375 74.1605 72.7614C74.1605 72.0795 74.2841 71.4844 74.5312 70.9759C74.7812 70.4673 75.1278 70.0724 75.571 69.7912C76.017 69.5099 76.5355 69.3693 77.1264 69.3693C77.7173 69.3693 78.2344 69.5099 78.6776 69.7912C79.1236 70.0724 79.4702 70.4673 79.7173 70.9759C79.9673 71.4844 80.0923 72.0795 80.0923 72.7614C80.0923 73.4375 79.9673 74.0284 79.7173 74.5341C79.4702 75.0398 79.1236 75.4332 78.6776 75.7145C78.2344 75.9957 77.7173 76.1364 77.1264 76.1364ZM77.1264 75.233C77.5753 75.233 77.9446 75.1179 78.2344 74.8878C78.5241 74.6577 78.7386 74.3551 78.8778 73.9801C79.017 73.6051 79.0866 73.1989 79.0866 72.7614C79.0866 72.3239 79.017 71.9162 78.8778 71.5384C78.7386 71.1605 78.5241 70.8551 78.2344 70.6222C77.9446 70.3892 77.5753 70.2727 77.1264 70.2727C76.6776 70.2727 76.3082 70.3892 76.0185 70.6222C75.7287 70.8551 75.5142 71.1605 75.375 71.5384C75.2358 71.9162 75.1662 72.3239 75.1662 72.7614C75.1662 73.1989 75.2358 73.6051 75.375 73.9801C75.5142 74.3551 75.7287 74.6577 76.0185 74.8878C76.3082 75.1179 76.6776 75.233 77.1264 75.233ZM81.6275 76V69.4545H82.5991V70.4773H82.6843C82.8207 70.1278 83.0408 69.8565 83.3448 69.6634C83.6488 69.4673 84.0138 69.3693 84.44 69.3693C84.8718 69.3693 85.2312 69.4673 85.5181 69.6634C85.8079 69.8565 86.0337 70.1278 86.1957 70.4773H86.2638C86.4315 70.1392 86.6829 69.8707 87.0181 69.6719C87.3533 69.4702 87.7553 69.3693 88.2241 69.3693C88.8093 69.3693 89.288 69.5526 89.6602 69.919C90.0323 70.2827 90.2184 70.8494 90.2184 71.6193V76H89.2127V71.6193C89.2127 71.1364 89.0806 70.7912 88.8164 70.5838C88.5522 70.3764 88.2411 70.2727 87.8832 70.2727C87.4229 70.2727 87.0664 70.4119 86.8136 70.6903C86.5607 70.9659 86.4343 71.3153 86.4343 71.7386V76H85.4116V71.517C85.4116 71.1449 85.2908 70.8452 85.0494 70.6179C84.8079 70.3878 84.4968 70.2727 84.1161 70.2727C83.8548 70.2727 83.6104 70.3423 83.3832 70.4815C83.1587 70.6207 82.9769 70.8139 82.8377 71.0611C82.7013 71.3054 82.6332 71.5881 82.6332 71.9091V76H81.6275ZM93.9833 76.1534C93.5685 76.1534 93.1921 76.0753 92.854 75.919C92.516 75.7599 92.2475 75.5312 92.0487 75.233C91.8498 74.9318 91.7504 74.5682 91.7504 74.142C91.7504 73.767 91.8242 73.4631 91.9719 73.2301C92.1197 72.9943 92.3171 72.8097 92.5643 72.6761C92.8114 72.5426 93.0842 72.4432 93.3825 72.3778C93.6836 72.3097 93.9862 72.2557 94.2901 72.2159C94.6879 72.1648 95.0103 72.1264 95.2575 72.1009C95.5075 72.0724 95.6893 72.0256 95.8029 71.9602C95.9194 71.8949 95.9776 71.7812 95.9776 71.6193V71.5852C95.9776 71.1648 95.8626 70.8381 95.6325 70.6051C95.4052 70.3722 95.06 70.2557 94.5969 70.2557C94.1168 70.2557 93.7404 70.3608 93.4677 70.571C93.195 70.7812 93.0032 71.0057 92.8924 71.2443L91.9379 70.9034C92.1083 70.5057 92.3356 70.196 92.6197 69.9744C92.9066 69.75 93.2191 69.5937 93.5572 69.5057C93.8981 69.4148 94.2333 69.3693 94.5629 69.3693C94.7731 69.3693 95.0146 69.3949 95.2873 69.446C95.5629 69.4943 95.8285 69.5952 96.0842 69.7486C96.3427 69.902 96.5572 70.1335 96.7276 70.4432C96.8981 70.7528 96.9833 71.1676 96.9833 71.6875V76H95.9776V75.1136H95.9265C95.8583 75.2557 95.7447 75.4077 95.5856 75.5696C95.4265 75.7315 95.2148 75.8693 94.9506 75.983C94.6864 76.0966 94.364 76.1534 93.9833 76.1534ZM94.1367 75.25C94.5344 75.25 94.8697 75.1719 95.1424 75.0156C95.418 74.8594 95.6254 74.6577 95.7646 74.4105C95.9066 74.1634 95.9776 73.9034 95.9776 73.6307V72.7102C95.935 72.7614 95.8413 72.8082 95.6964 72.8509C95.5543 72.8906 95.3896 72.9261 95.2021 72.9574C95.0174 72.9858 94.837 73.0114 94.6609 73.0341C94.4876 73.054 94.3469 73.071 94.239 73.0852C93.9776 73.1193 93.7333 73.1747 93.506 73.2514C93.2816 73.3253 93.0998 73.4375 92.9606 73.5881C92.8242 73.7358 92.756 73.9375 92.756 74.1932C92.756 74.5426 92.8853 74.8068 93.1438 74.9858C93.4052 75.1619 93.7362 75.25 94.1367 75.25ZM98.8189 76V69.4545H99.8246V76H98.8189ZM99.3303 68.3636C99.1342 68.3636 98.9652 68.2969 98.8232 68.1634C98.6839 68.0298 98.6143 67.8693 98.6143 67.6818C98.6143 67.4943 98.6839 67.3338 98.8232 67.2003C98.9652 67.0668 99.1342 67 99.3303 67C99.5263 67 99.6939 67.0668 99.8331 67.2003C99.9751 67.3338 100.046 67.4943 100.046 67.6818C100.046 67.8693 99.9751 68.0298 99.8331 68.1634C99.6939 68.2969 99.5263 68.3636 99.3303 68.3636ZM102.672 72.0625V76H101.667V69.4545H102.638V70.4773H102.723C102.877 70.1449 103.11 69.8778 103.422 69.6761C103.735 69.4716 104.138 69.3693 104.632 69.3693C105.076 69.3693 105.463 69.4602 105.796 69.642C106.128 69.821 106.387 70.0938 106.571 70.4602C106.756 70.8239 106.848 71.2841 106.848 71.8409V76H105.843V71.9091C105.843 71.3949 105.709 70.9943 105.442 70.7074C105.175 70.4176 104.809 70.2727 104.343 70.2727C104.022 70.2727 103.735 70.3423 103.482 70.4815C103.232 70.6207 103.034 70.8239 102.89 71.0909C102.745 71.358 102.672 71.6818 102.672 72.0625ZM109.419 76.0682C109.209 76.0682 109.028 75.9929 108.878 75.8423C108.727 75.6918 108.652 75.5114 108.652 75.3011C108.652 75.0909 108.727 74.9105 108.878 74.7599C109.028 74.6094 109.209 74.5341 109.419 74.5341C109.629 74.5341 109.81 74.6094 109.96 74.7599C110.111 74.9105 110.186 75.0909 110.186 75.3011C110.186 75.4403 110.151 75.5682 110.08 75.6847C110.011 75.8011 109.919 75.8949 109.803 75.9659C109.689 76.0341 109.561 76.0682 109.419 76.0682ZM114.65 76.1364C114.036 76.1364 113.508 75.9915 113.065 75.7017C112.621 75.4119 112.281 75.0128 112.042 74.5043C111.803 73.9957 111.684 73.4148 111.684 72.7614C111.684 72.0966 111.806 71.5099 112.05 71.0014C112.298 70.4901 112.641 70.0909 113.082 69.804C113.525 69.5142 114.042 69.3693 114.633 69.3693C115.093 69.3693 115.508 69.4545 115.877 69.625C116.246 69.7955 116.549 70.0341 116.785 70.3409C117.021 70.6477 117.167 71.0057 117.224 71.4148H116.218C116.141 71.1165 115.971 70.8523 115.707 70.6222C115.445 70.3892 115.093 70.2727 114.65 70.2727C114.258 70.2727 113.914 70.375 113.619 70.5795C113.326 70.7812 113.097 71.0668 112.933 71.4361C112.771 71.8026 112.69 72.233 112.69 72.7273C112.69 73.233 112.769 73.6733 112.928 74.0483C113.09 74.4233 113.317 74.7145 113.61 74.9219C113.906 75.1293 114.252 75.233 114.65 75.233C114.911 75.233 115.148 75.1875 115.362 75.0966C115.575 75.0057 115.755 74.875 115.903 74.7045C116.05 74.5341 116.156 74.3295 116.218 74.0909H117.224C117.167 74.4773 117.026 74.8253 116.802 75.1349C116.58 75.4418 116.286 75.6861 115.92 75.8679C115.556 76.0469 115.133 76.1364 114.65 76.1364ZM121.353 76.1364C120.762 76.1364 120.244 75.9957 119.798 75.7145C119.354 75.4332 119.008 75.0398 118.758 74.5341C118.511 74.0284 118.387 73.4375 118.387 72.7614C118.387 72.0795 118.511 71.4844 118.758 70.9759C119.008 70.4673 119.354 70.0724 119.798 69.7912C120.244 69.5099 120.762 69.3693 121.353 69.3693C121.944 69.3693 122.461 69.5099 122.904 69.7912C123.35 70.0724 123.697 70.4673 123.944 70.9759C124.194 71.4844 124.319 72.0795 124.319 72.7614C124.319 73.4375 124.194 74.0284 123.944 74.5341C123.697 75.0398 123.35 75.4332 122.904 75.7145C122.461 75.9957 121.944 76.1364 121.353 76.1364ZM121.353 75.233C121.802 75.233 122.171 75.1179 122.461 74.8878C122.751 74.6577 122.965 74.3551 123.104 73.9801C123.244 73.6051 123.313 73.1989 123.313 72.7614C123.313 72.3239 123.244 71.9162 123.104 71.5384C122.965 71.1605 122.751 70.8551 122.461 70.6222C122.171 70.3892 121.802 70.2727 121.353 70.2727C120.904 70.2727 120.535 70.3892 120.245 70.6222C119.955 70.8551 119.741 71.1605 119.602 71.5384C119.462 71.9162 119.393 72.3239 119.393 72.7614C119.393 73.1989 119.462 73.6051 119.602 73.9801C119.741 74.3551 119.955 74.6577 120.245 74.8878C120.535 75.1179 120.904 75.233 121.353 75.233ZM125.854 76V69.4545H126.826V70.4773H126.911C127.047 70.1278 127.267 69.8565 127.571 69.6634C127.875 69.4673 128.24 69.3693 128.667 69.3693C129.098 69.3693 129.458 69.4673 129.745 69.6634C130.034 69.8565 130.26 70.1278 130.422 70.4773H130.49C130.658 70.1392 130.909 69.8707 131.245 69.6719C131.58 69.4702 131.982 69.3693 132.451 69.3693C133.036 69.3693 133.515 69.5526 133.887 69.919C134.259 70.2827 134.445 70.8494 134.445 71.6193V76H133.439V71.6193C133.439 71.1364 133.307 70.7912 133.043 70.5838C132.779 70.3764 132.468 70.2727 132.11 70.2727C131.65 70.2727 131.293 70.4119 131.04 70.6903C130.787 70.9659 130.661 71.3153 130.661 71.7386V76H129.638V71.517C129.638 71.1449 129.517 70.8452 129.276 70.6179C129.034 70.3878 128.723 70.2727 128.343 70.2727C128.081 70.2727 127.837 70.3423 127.61 70.4815C127.385 70.6207 127.203 70.8139 127.064 71.0611C126.928 71.3054 126.86 71.5881 126.86 71.9091V76H125.854Z" fill="black"/>
</g>
</g>
<defs>
<clipPath id="clip0_71_20">
<rect width="159" height="104" fill="white"/>
</clipPath>
</defs>
</svg>
