<svg width="159" height="104" viewBox="0 0 159 104" fill="none" xmlns="http://www.w3.org/2000/svg">
<g clip-path="url(#clip0_71_2)">
<mask id="mask0_71_2" style="mask-type:luminance" maskUnits="userSpaceOnUse" x="0" y="0" width="159" height="104">
<path d="M159 0H0V104H159V0Z" fill="white"/>
</mask>
<g mask="url(#mask0_71_2)">
<path d="M125.477 49C134.314 49 141.477 41.8366 141.477 33C141.477 24.1634 134.314 17 125.477 17L-30.0229 17C-38.8595 17 -46.0229 24.1634 -46.0229 33C-46.0229 41.8366 -38.8595 49 -30.0229 49L125.477 49Z" fill="#161616"/>
<path d="M125.477 49.5C134.59 49.5 141.977 42.1127 141.977 33C141.977 23.8873 134.59 16.5 125.477 16.5L-30.0229 16.5C-39.1357 16.5 -46.5229 23.8873 -46.5229 33C-46.5229 42.1127 -39.1357 49.5 -30.0229 49.5L125.477 49.5Z" stroke="#EDEDED"/>
<path d="M125.477 87.5C134.314 87.5 141.477 80.3366 141.477 71.5C141.477 62.6634 134.314 55.5 125.477 55.5L-30.0229 55.5C-38.8595 55.5 -46.0229 62.6634 -46.0229 71.5C-46.0229 80.3366 -38.8595 87.5 -30.0229 87.5H125.477Z" fill="#161616"/>
<path d="M125.477 88C134.59 88 141.977 80.6127 141.977 71.5C141.977 62.3873 134.59 55 125.477 55L-30.0229 55C-39.1357 55 -46.5229 62.3873 -46.5229 71.5C-46.5229 80.6127 -39.1357 88 -30.0229 88H125.477Z" stroke="#EDEDED"/>
<path d="M1.92614 72.0625V76H0.920455V67.2727H1.92614V70.4773H2.01136C2.16477 70.1392 2.39489 69.8707 2.7017 69.6719C3.01136 69.4702 3.4233 69.3693 3.9375 69.3693C4.38352 69.3693 4.77415 69.4588 5.10938 69.6378C5.4446 69.8139 5.70455 70.0852 5.8892 70.4517C6.0767 70.8153 6.17045 71.2784 6.17045 71.8409V76H5.16477V71.9091C5.16477 71.3892 5.02983 70.9872 4.75994 70.7031C4.4929 70.4162 4.12216 70.2727 3.64773 70.2727C3.31818 70.2727 3.02273 70.3423 2.76136 70.4815C2.50284 70.6207 2.2983 70.8239 2.14773 71.0909C2 71.358 1.92614 71.6818 1.92614 72.0625ZM10.8569 69.4545V70.3068H7.46484V69.4545H10.8569ZM8.45348 67.8864H9.45916V74.125C9.45916 74.4091 9.50036 74.6222 9.58274 74.7642C9.66797 74.9034 9.77592 74.9972 9.90661 75.0455C10.0401 75.0909 10.1808 75.1136 10.3285 75.1136C10.4393 75.1136 10.5302 75.108 10.6012 75.0966C10.6722 75.0824 10.729 75.071 10.7717 75.0625L10.9762 75.9659C10.908 75.9915 10.8129 76.017 10.6907 76.0426C10.5685 76.071 10.4137 76.0852 10.2262 76.0852C9.94212 76.0852 9.66371 76.0241 9.39098 75.902C9.12109 75.7798 8.89666 75.5938 8.71768 75.3438C8.54155 75.0938 8.45348 74.7784 8.45348 74.3977V67.8864ZM15.2163 69.4545V70.3068H11.8242V69.4545H15.2163ZM12.8129 67.8864H13.8185V74.125C13.8185 74.4091 13.8597 74.6222 13.9421 74.7642C14.0273 74.9034 14.1353 74.9972 14.266 75.0455C14.3995 75.0909 14.5401 75.1136 14.6879 75.1136C14.7987 75.1136 14.8896 75.108 14.9606 75.0966C15.0316 75.0824 15.0884 75.071 15.131 75.0625L15.3356 75.9659C15.2674 75.9915 15.1722 76.017 15.0501 76.0426C14.9279 76.071 14.7731 76.0852 14.5856 76.0852C14.3015 76.0852 14.0231 76.0241 13.7504 75.902C13.4805 75.7798 13.256 75.5938 13.0771 75.3438C12.9009 75.0938 12.8129 74.7784 12.8129 74.3977V67.8864ZM16.729 78.4545V69.4545H17.7006V70.4943H17.82C17.8938 70.3807 17.9961 70.2358 18.1268 70.0597C18.2603 69.8807 18.4506 69.7216 18.6978 69.5824C18.9478 69.4403 19.2859 69.3693 19.712 69.3693C20.2631 69.3693 20.7489 69.5071 21.1694 69.7827C21.5898 70.0582 21.918 70.4489 22.1538 70.9545C22.3896 71.4602 22.5075 72.0568 22.5075 72.7443C22.5075 73.4375 22.3896 74.0384 22.1538 74.5469C21.918 75.0526 21.5913 75.4446 21.1737 75.723C20.756 75.9986 20.2745 76.1364 19.729 76.1364C19.3086 76.1364 18.9719 76.0668 18.7191 75.9276C18.4663 75.7855 18.2717 75.625 18.1353 75.446C17.9989 75.2642 17.8938 75.1136 17.82 74.9943H17.7347V78.4545H16.729ZM17.7177 72.7273C17.7177 73.2216 17.7901 73.6577 17.935 74.0355C18.0799 74.4105 18.2915 74.7045 18.57 74.9176C18.8484 75.1278 19.1893 75.233 19.5927 75.233C20.0131 75.233 20.364 75.1222 20.6452 74.9006C20.9293 74.6761 21.1424 74.375 21.2844 73.9972C21.4293 73.6165 21.5018 73.1932 21.5018 72.7273C21.5018 72.267 21.4308 71.8523 21.2887 71.483C21.1495 71.1108 20.9379 70.8168 20.6538 70.6009C20.3725 70.3821 20.0188 70.2727 19.5927 70.2727C19.1836 70.2727 18.8398 70.3764 18.5614 70.5838C18.283 70.7884 18.0728 71.0753 17.9308 71.4446C17.7887 71.8111 17.7177 72.2386 17.7177 72.7273ZM28.6779 70.9205L27.7745 71.1761C27.7177 71.0256 27.6339 70.8793 27.5231 70.7372C27.4151 70.5923 27.2674 70.473 27.0799 70.3793C26.8924 70.2855 26.6523 70.2386 26.3597 70.2386C25.9592 70.2386 25.6254 70.331 25.3583 70.5156C25.0941 70.6974 24.962 70.929 24.962 71.2102C24.962 71.4602 25.0529 71.6577 25.2347 71.8026C25.4165 71.9474 25.7006 72.0682 26.087 72.1648L27.0586 72.4034C27.6438 72.5455 28.0799 72.7628 28.3668 73.0554C28.6538 73.3452 28.7972 73.7187 28.7972 74.1761C28.7972 74.5511 28.6893 74.8864 28.4734 75.1818C28.2603 75.4773 27.962 75.7102 27.5785 75.8807C27.195 76.0511 26.7489 76.1364 26.2404 76.1364C25.5728 76.1364 25.0202 75.9915 24.5827 75.7017C24.1452 75.4119 23.8683 74.9886 23.7518 74.4318L24.7063 74.1932C24.7972 74.5455 24.9691 74.8097 25.2219 74.9858C25.4776 75.1619 25.8114 75.25 26.2234 75.25C26.6921 75.25 27.0643 75.1506 27.3398 74.9517C27.6183 74.75 27.7575 74.5085 27.7575 74.2273C27.7575 74 27.6779 73.8097 27.5188 73.6562C27.3597 73.5 27.1154 73.3835 26.7859 73.3068L25.695 73.0511C25.0955 72.9091 24.6552 72.6889 24.3739 72.3906C24.0955 72.0895 23.9563 71.7131 23.9563 71.2614C23.9563 70.892 24.06 70.5653 24.2674 70.2812C24.4776 69.9972 24.7631 69.7741 25.1239 69.6122C25.4876 69.4503 25.8995 69.3693 26.3597 69.3693C27.0075 69.3693 27.516 69.5114 27.8853 69.7955C28.2575 70.0795 28.5217 70.4545 28.6779 70.9205ZM31.044 76.0682C30.8338 76.0682 30.6534 75.9929 30.5028 75.8423C30.3523 75.6918 30.277 75.5114 30.277 75.3011C30.277 75.0909 30.3523 74.9105 30.5028 74.7599C30.6534 74.6094 30.8338 74.5341 31.044 74.5341C31.2543 74.5341 31.4347 74.6094 31.5852 74.7599C31.7358 74.9105 31.8111 75.0909 31.8111 75.3011C31.8111 75.4403 31.7756 75.5682 31.7045 75.6847C31.6364 75.8011 31.544 75.8949 31.4276 75.9659C31.3139 76.0341 31.1861 76.0682 31.044 76.0682ZM31.044 71.2102C30.8338 71.2102 30.6534 71.1349 30.5028 70.9844C30.3523 70.8338 30.277 70.6534 30.277 70.4432C30.277 70.233 30.3523 70.0526 30.5028 69.902C30.6534 69.7514 30.8338 69.6761 31.044 69.6761C31.2543 69.6761 31.4347 69.7514 31.5852 69.902C31.7358 70.0526 31.8111 70.233 31.8111 70.4432C31.8111 70.5824 31.7756 70.7102 31.7045 70.8267C31.6364 70.9432 31.544 71.0369 31.4276 71.108C31.3139 71.1761 31.1861 71.2102 31.044 71.2102ZM36.701 66.8636L33.8885 77.3125H32.968L35.7805 66.8636H36.701ZM40.9783 66.8636L38.1658 77.3125H37.2454L40.0579 66.8636H40.9783ZM42.8182 78.4545C42.6477 78.4545 42.4957 78.4403 42.3622 78.4119C42.2287 78.3864 42.1364 78.3608 42.0852 78.3352L42.3409 77.4489C42.5852 77.5114 42.8011 77.5341 42.9886 77.517C43.1761 77.5 43.3423 77.4162 43.4872 77.2656C43.6349 77.1179 43.7699 76.8778 43.892 76.5455L44.0795 76.0341L41.6591 69.4545H42.75L44.5568 74.6705H44.625L46.4318 69.4545H47.5227L44.7443 76.9545C44.6193 77.2926 44.4645 77.5724 44.2798 77.794C44.0952 78.0185 43.8807 78.1847 43.6364 78.2926C43.3949 78.4006 43.1222 78.4545 42.8182 78.4545ZM51.2749 76.1364C50.6839 76.1364 50.1655 75.9957 49.7195 75.7145C49.2763 75.4332 48.9297 75.0398 48.6797 74.5341C48.4325 74.0284 48.3089 73.4375 48.3089 72.7614C48.3089 72.0795 48.4325 71.4844 48.6797 70.9759C48.9297 70.4673 49.2763 70.0724 49.7195 69.7912C50.1655 69.5099 50.6839 69.3693 51.2749 69.3693C51.8658 69.3693 52.3828 69.5099 52.826 69.7912C53.272 70.0724 53.6186 70.4673 53.8658 70.9759C54.1158 71.4844 54.2408 72.0795 54.2408 72.7614C54.2408 73.4375 54.1158 74.0284 53.8658 74.5341C53.6186 75.0398 53.272 75.4332 52.826 75.7145C52.3828 75.9957 51.8658 76.1364 51.2749 76.1364ZM51.2749 75.233C51.7237 75.233 52.093 75.1179 52.3828 74.8878C52.6726 74.6577 52.8871 74.3551 53.0263 73.9801C53.1655 73.6051 53.2351 73.1989 53.2351 72.7614C53.2351 72.3239 53.1655 71.9162 53.0263 71.5384C52.8871 71.1605 52.6726 70.8551 52.3828 70.6222C52.093 70.3892 51.7237 70.2727 51.2749 70.2727C50.826 70.2727 50.4567 70.3892 50.1669 70.6222C49.8771 70.8551 49.6626 71.1605 49.5234 71.5384C49.3842 71.9162 49.3146 72.3239 49.3146 72.7614C49.3146 73.1989 49.3842 73.6051 49.5234 73.9801C49.6626 74.3551 49.8771 74.6577 50.1669 74.8878C50.4567 75.1179 50.826 75.233 51.2749 75.233ZM59.9009 73.3239V69.4545H60.9066V76H59.9009V74.892H59.8327C59.6793 75.2244 59.4407 75.5071 59.1168 75.7401C58.793 75.9702 58.3839 76.0852 57.8896 76.0852C57.4805 76.0852 57.1168 75.9957 56.7987 75.8168C56.4805 75.6349 56.2305 75.3622 56.0487 74.9986C55.8668 74.6321 55.7759 74.1705 55.7759 73.6136V69.4545H56.7816V73.5455C56.7816 74.0227 56.9151 74.4034 57.1822 74.6875C57.4521 74.9716 57.7958 75.1136 58.2134 75.1136C58.4634 75.1136 58.7177 75.0497 58.9762 74.9219C59.2376 74.794 59.4563 74.598 59.6325 74.3338C59.8114 74.0696 59.9009 73.733 59.9009 73.3239ZM62.7486 76V69.4545H63.7202V70.4432H63.7884C63.9077 70.1193 64.1236 69.8565 64.4361 69.6548C64.7486 69.4531 65.1009 69.3523 65.4929 69.3523C65.5668 69.3523 65.6591 69.3537 65.7699 69.3565C65.8807 69.3594 65.9645 69.3636 66.0213 69.3693V70.392C65.9872 70.3835 65.9091 70.3707 65.7869 70.3537C65.6676 70.3338 65.5412 70.3239 65.4077 70.3239C65.0895 70.3239 64.8054 70.3906 64.5554 70.5241C64.3082 70.6548 64.1122 70.8366 63.9673 71.0696C63.8253 71.2997 63.7543 71.5625 63.7543 71.858V76H62.7486ZM69.4858 76.1364C68.9403 76.1364 68.4588 75.9986 68.0412 75.723C67.6236 75.4446 67.2969 75.0526 67.0611 74.5469C66.8253 74.0384 66.7074 73.4375 66.7074 72.7443C66.7074 72.0568 66.8253 71.4602 67.0611 70.9545C67.2969 70.4489 67.625 70.0582 68.0455 69.7827C68.4659 69.5071 68.9517 69.3693 69.5028 69.3693C69.929 69.3693 70.2656 69.4403 70.5128 69.5824C70.7628 69.7216 70.9531 69.8807 71.0838 70.0597C71.2173 70.2358 71.321 70.3807 71.3949 70.4943H71.4801V67.2727H72.4858V76H71.5142V74.9943H71.3949C71.321 75.1136 71.2159 75.2642 71.0795 75.446C70.9432 75.625 70.7486 75.7855 70.4957 75.9276C70.2429 76.0668 69.9063 76.1364 69.4858 76.1364ZM69.6222 75.233C70.0256 75.233 70.3665 75.1278 70.6449 74.9176C70.9233 74.7045 71.1349 74.4105 71.2798 74.0355C71.4247 73.6577 71.4972 73.2216 71.4972 72.7273C71.4972 72.2386 71.4261 71.8111 71.2841 71.4446C71.142 71.0753 70.9318 70.7884 70.6534 70.5838C70.375 70.3764 70.0313 70.2727 69.6222 70.2727C69.196 70.2727 68.8409 70.3821 68.5568 70.6009C68.2756 70.8168 68.0639 71.1108 67.9219 71.483C67.7827 71.8523 67.7131 72.267 67.7131 72.7273C67.7131 73.1932 67.7841 73.6165 67.9261 73.9972C68.071 74.375 68.2841 74.6761 68.5653 74.9006C68.8494 75.1222 69.2017 75.233 69.6222 75.233ZM77.1264 76.1364C76.5355 76.1364 76.017 75.9957 75.571 75.7145C75.1278 75.4332 74.7812 75.0398 74.5312 74.5341C74.2841 74.0284 74.1605 73.4375 74.1605 72.7614C74.1605 72.0795 74.2841 71.4844 74.5312 70.9759C74.7812 70.4673 75.1278 70.0724 75.571 69.7912C76.017 69.5099 76.5355 69.3693 77.1264 69.3693C77.7173 69.3693 78.2344 69.5099 78.6776 69.7912C79.1236 70.0724 79.4702 70.4673 79.7173 70.9759C79.9673 71.4844 80.0923 72.0795 80.0923 72.7614C80.0923 73.4375 79.9673 74.0284 79.7173 74.5341C79.4702 75.0398 79.1236 75.4332 78.6776 75.7145C78.2344 75.9957 77.7173 76.1364 77.1264 76.1364ZM77.1264 75.233C77.5753 75.233 77.9446 75.1179 78.2344 74.8878C78.5241 74.6577 78.7386 74.3551 78.8778 73.9801C79.017 73.6051 79.0866 73.1989 79.0866 72.7614C79.0866 72.3239 79.017 71.9162 78.8778 71.5384C78.7386 71.1605 78.5241 70.8551 78.2344 70.6222C77.9446 70.3892 77.5753 70.2727 77.1264 70.2727C76.6776 70.2727 76.3082 70.3892 76.0185 70.6222C75.7287 70.8551 75.5142 71.1605 75.375 71.5384C75.2358 71.9162 75.1662 72.3239 75.1662 72.7614C75.1662 73.1989 75.2358 73.6051 75.375 73.9801C75.5142 74.3551 75.7287 74.6577 76.0185 74.8878C76.3082 75.1179 76.6776 75.233 77.1264 75.233ZM81.6275 76V69.4545H82.5991V70.4773H82.6843C82.8207 70.1278 83.0408 69.8565 83.3448 69.6634C83.6488 69.4673 84.0138 69.3693 84.44 69.3693C84.8718 69.3693 85.2312 69.4673 85.5181 69.6634C85.8079 69.8565 86.0337 70.1278 86.1957 70.4773H86.2638C86.4315 70.1392 86.6829 69.8707 87.0181 69.6719C87.3533 69.4702 87.7553 69.3693 88.2241 69.3693C88.8093 69.3693 89.288 69.5526 89.6602 69.919C90.0323 70.2827 90.2184 70.8494 90.2184 71.6193V76H89.2127V71.6193C89.2127 71.1364 89.0806 70.7912 88.8164 70.5838C88.5522 70.3764 88.2411 70.2727 87.8832 70.2727C87.4229 70.2727 87.0664 70.4119 86.8136 70.6903C86.5607 70.9659 86.4343 71.3153 86.4343 71.7386V76H85.4116V71.517C85.4116 71.1449 85.2908 70.8452 85.0494 70.6179C84.8079 70.3878 84.4968 70.2727 84.1161 70.2727C83.8548 70.2727 83.6104 70.3423 83.3832 70.4815C83.1587 70.6207 82.9769 70.8139 82.8377 71.0611C82.7013 71.3054 82.6332 71.5881 82.6332 71.9091V76H81.6275ZM93.9833 76.1534C93.5685 76.1534 93.1921 76.0753 92.854 75.919C92.516 75.7599 92.2475 75.5312 92.0487 75.233C91.8498 74.9318 91.7504 74.5682 91.7504 74.142C91.7504 73.767 91.8242 73.4631 91.9719 73.2301C92.1197 72.9943 92.3171 72.8097 92.5643 72.6761C92.8114 72.5426 93.0842 72.4432 93.3825 72.3778C93.6836 72.3097 93.9862 72.2557 94.2901 72.2159C94.6879 72.1648 95.0103 72.1264 95.2575 72.1009C95.5075 72.0724 95.6893 72.0256 95.8029 71.9602C95.9194 71.8949 95.9776 71.7812 95.9776 71.6193V71.5852C95.9776 71.1648 95.8626 70.8381 95.6325 70.6051C95.4052 70.3722 95.06 70.2557 94.5969 70.2557C94.1168 70.2557 93.7404 70.3608 93.4677 70.571C93.195 70.7812 93.0032 71.0057 92.8924 71.2443L91.9379 70.9034C92.1083 70.5057 92.3356 70.196 92.6197 69.9744C92.9066 69.75 93.2191 69.5937 93.5572 69.5057C93.8981 69.4148 94.2333 69.3693 94.5629 69.3693C94.7731 69.3693 95.0146 69.3949 95.2873 69.446C95.5629 69.4943 95.8285 69.5952 96.0842 69.7486C96.3427 69.902 96.5572 70.1335 96.7276 70.4432C96.8981 70.7528 96.9833 71.1676 96.9833 71.6875V76H95.9776V75.1136H95.9265C95.8583 75.2557 95.7447 75.4077 95.5856 75.5696C95.4265 75.7315 95.2148 75.8693 94.9506 75.983C94.6864 76.0966 94.364 76.1534 93.9833 76.1534ZM94.1367 75.25C94.5344 75.25 94.8697 75.1719 95.1424 75.0156C95.418 74.8594 95.6254 74.6577 95.7646 74.4105C95.9066 74.1634 95.9776 73.9034 95.9776 73.6307V72.7102C95.935 72.7614 95.8413 72.8082 95.6964 72.8509C95.5543 72.8906 95.3896 72.9261 95.2021 72.9574C95.0174 72.9858 94.837 73.0114 94.6609 73.0341C94.4876 73.054 94.3469 73.071 94.239 73.0852C93.9776 73.1193 93.7333 73.1747 93.506 73.2514C93.2816 73.3253 93.0998 73.4375 92.9606 73.5881C92.8242 73.7358 92.756 73.9375 92.756 74.1932C92.756 74.5426 92.8853 74.8068 93.1438 74.9858C93.4052 75.1619 93.7362 75.25 94.1367 75.25ZM98.8189 76V69.4545H99.8246V76H98.8189ZM99.3303 68.3636C99.1342 68.3636 98.9652 68.2969 98.8232 68.1634C98.6839 68.0298 98.6143 67.8693 98.6143 67.6818C98.6143 67.4943 98.6839 67.3338 98.8232 67.2003C98.9652 67.0668 99.1342 67 99.3303 67C99.5263 67 99.6939 67.0668 99.8331 67.2003C99.9751 67.3338 100.046 67.4943 100.046 67.6818C100.046 67.8693 99.9751 68.0298 99.8331 68.1634C99.6939 68.2969 99.5263 68.3636 99.3303 68.3636ZM102.672 72.0625V76H101.667V69.4545H102.638V70.4773H102.723C102.877 70.1449 103.11 69.8778 103.422 69.6761C103.735 69.4716 104.138 69.3693 104.632 69.3693C105.076 69.3693 105.463 69.4602 105.796 69.642C106.128 69.821 106.387 70.0938 106.571 70.4602C106.756 70.8239 106.848 71.2841 106.848 71.8409V76H105.843V71.9091C105.843 71.3949 105.709 70.9943 105.442 70.7074C105.175 70.4176 104.809 70.2727 104.343 70.2727C104.022 70.2727 103.735 70.3423 103.482 70.4815C103.232 70.6207 103.034 70.8239 102.89 71.0909C102.745 71.358 102.672 71.6818 102.672 72.0625ZM109.419 76.0682C109.209 76.0682 109.028 75.9929 108.878 75.8423C108.727 75.6918 108.652 75.5114 108.652 75.3011C108.652 75.0909 108.727 74.9105 108.878 74.7599C109.028 74.6094 109.209 74.5341 109.419 74.5341C109.629 74.5341 109.81 74.6094 109.96 74.7599C110.111 74.9105 110.186 75.0909 110.186 75.3011C110.186 75.4403 110.151 75.5682 110.08 75.6847C110.011 75.8011 109.919 75.8949 109.803 75.9659C109.689 76.0341 109.561 76.0682 109.419 76.0682ZM114.65 76.1364C114.036 76.1364 113.508 75.9915 113.065 75.7017C112.621 75.4119 112.281 75.0128 112.042 74.5043C111.803 73.9957 111.684 73.4148 111.684 72.7614C111.684 72.0966 111.806 71.5099 112.05 71.0014C112.298 70.4901 112.641 70.0909 113.082 69.804C113.525 69.5142 114.042 69.3693 114.633 69.3693C115.093 69.3693 115.508 69.4545 115.877 69.625C116.246 69.7955 116.549 70.0341 116.785 70.3409C117.021 70.6477 117.167 71.0057 117.224 71.4148H116.218C116.141 71.1165 115.971 70.8523 115.707 70.6222C115.445 70.3892 115.093 70.2727 114.65 70.2727C114.258 70.2727 113.914 70.375 113.619 70.5795C113.326 70.7812 113.097 71.0668 112.933 71.4361C112.771 71.8026 112.69 72.233 112.69 72.7273C112.69 73.233 112.769 73.6733 112.928 74.0483C113.09 74.4233 113.317 74.7145 113.61 74.9219C113.906 75.1293 114.252 75.233 114.65 75.233C114.911 75.233 115.148 75.1875 115.362 75.0966C115.575 75.0057 115.755 74.875 115.903 74.7045C116.05 74.5341 116.156 74.3295 116.218 74.0909H117.224C117.167 74.4773 117.026 74.8253 116.802 75.1349C116.58 75.4418 116.286 75.6861 115.92 75.8679C115.556 76.0469 115.133 76.1364 114.65 76.1364ZM121.353 76.1364C120.762 76.1364 120.244 75.9957 119.798 75.7145C119.354 75.4332 119.008 75.0398 118.758 74.5341C118.511 74.0284 118.387 73.4375 118.387 72.7614C118.387 72.0795 118.511 71.4844 118.758 70.9759C119.008 70.4673 119.354 70.0724 119.798 69.7912C120.244 69.5099 120.762 69.3693 121.353 69.3693C121.944 69.3693 122.461 69.5099 122.904 69.7912C123.35 70.0724 123.697 70.4673 123.944 70.9759C124.194 71.4844 124.319 72.0795 124.319 72.7614C124.319 73.4375 124.194 74.0284 123.944 74.5341C123.697 75.0398 123.35 75.4332 122.904 75.7145C122.461 75.9957 121.944 76.1364 121.353 76.1364ZM121.353 75.233C121.802 75.233 122.171 75.1179 122.461 74.8878C122.751 74.6577 122.965 74.3551 123.104 73.9801C123.244 73.6051 123.313 73.1989 123.313 72.7614C123.313 72.3239 123.244 71.9162 123.104 71.5384C122.965 71.1605 122.751 70.8551 122.461 70.6222C122.171 70.3892 121.802 70.2727 121.353 70.2727C120.904 70.2727 120.535 70.3892 120.245 70.6222C119.955 70.8551 119.741 71.1605 119.602 71.5384C119.462 71.9162 119.393 72.3239 119.393 72.7614C119.393 73.1989 119.462 73.6051 119.602 73.9801C119.741 74.3551 119.955 74.6577 120.245 74.8878C120.535 75.1179 120.904 75.233 121.353 75.233ZM125.854 76V69.4545H126.826V70.4773H126.911C127.047 70.1278 127.267 69.8565 127.571 69.6634C127.875 69.4673 128.24 69.3693 128.667 69.3693C129.098 69.3693 129.458 69.4673 129.745 69.6634C130.034 69.8565 130.26 70.1278 130.422 70.4773H130.49C130.658 70.1392 130.909 69.8707 131.245 69.6719C131.58 69.4702 131.982 69.3693 132.451 69.3693C133.036 69.3693 133.515 69.5526 133.887 69.919C134.259 70.2827 134.445 70.8494 134.445 71.6193V76H133.439V71.6193C133.439 71.1364 133.307 70.7912 133.043 70.5838C132.779 70.3764 132.468 70.2727 132.11 70.2727C131.65 70.2727 131.293 70.4119 131.04 70.6903C130.787 70.9659 130.661 71.3153 130.661 71.7386V76H129.638V71.517C129.638 71.1449 129.517 70.8452 129.276 70.6179C129.034 70.3878 128.723 70.2727 128.343 70.2727C128.081 70.2727 127.837 70.3423 127.61 70.4815C127.385 70.6207 127.203 70.8139 127.064 71.0611C126.928 71.3054 126.86 71.5881 126.86 71.9091V76H125.854Z" fill="white"/>
<path d="M-30.0739 33.0625V37H-31.0795V28.2727H-30.0739V31.4773H-29.9886C-29.8352 31.1392 -29.6051 30.8707 -29.2983 30.6719C-28.9886 30.4702 -28.5767 30.3693 -28.0625 30.3693C-27.6165 30.3693 -27.2259 30.4588 -26.8906 30.6378C-26.5554 30.8139 -26.2955 31.0852 -26.1108 31.4517C-25.9233 31.8153 -25.8295 32.2784 -25.8295 32.8409V37H-26.8352V32.9091C-26.8352 32.3892 -26.9702 31.9872 -27.2401 31.7031C-27.5071 31.4162 -27.8778 31.2727 -28.3523 31.2727C-28.6818 31.2727 -28.9773 31.3423 -29.2386 31.4815C-29.4972 31.6207 -29.7017 31.8239 -29.8523 32.0909C-30 32.358 -30.0739 32.6818 -30.0739 33.0625ZM-21.1431 30.4545V31.3068H-24.5352V30.4545H-21.1431ZM-23.5465 28.8864H-22.5408V35.125C-22.5408 35.4091 -22.4996 35.6222 -22.4173 35.7642C-22.332 35.9034 -22.2241 35.9972 -22.0934 36.0455C-21.9599 36.0909 -21.8192 36.1136 -21.6715 36.1136C-21.5607 36.1136 -21.4698 36.108 -21.3988 36.0966C-21.3278 36.0824 -21.271 36.071 -21.2283 36.0625L-21.0238 36.9659C-21.092 36.9915 -21.1871 37.017 -21.3093 37.0426C-21.4315 37.071 -21.5863 37.0852 -21.7738 37.0852C-22.0579 37.0852 -22.3363 37.0241 -22.609 36.902C-22.8789 36.7798 -23.1033 36.5938 -23.2823 36.3438C-23.4585 36.0938 -23.5465 35.7784 -23.5465 35.3977V28.8864ZM-16.7837 30.4545V31.3068H-20.1758V30.4545H-16.7837ZM-19.1871 28.8864H-18.1815V35.125C-18.1815 35.4091 -18.1403 35.6222 -18.0579 35.7642C-17.9727 35.9034 -17.8647 35.9972 -17.734 36.0455C-17.6005 36.0909 -17.4599 36.1136 -17.3121 36.1136C-17.2013 36.1136 -17.1104 36.108 -17.0394 36.0966C-16.9684 36.0824 -16.9116 36.071 -16.869 36.0625L-16.6644 36.9659C-16.7326 36.9915 -16.8278 37.017 -16.9499 37.0426C-17.0721 37.071 -17.2269 37.0852 -17.4144 37.0852C-17.6985 37.0852 -17.9769 37.0241 -18.2496 36.902C-18.5195 36.7798 -18.744 36.5938 -18.9229 36.3438C-19.0991 36.0938 -19.1871 35.7784 -19.1871 35.3977V28.8864ZM-15.271 39.4545V30.4545H-14.2994V31.4943H-14.18C-14.1062 31.3807 -14.0039 31.2358 -13.8732 31.0597C-13.7397 30.8807 -13.5494 30.7216 -13.3022 30.5824C-13.0522 30.4403 -12.7141 30.3693 -12.288 30.3693C-11.7369 30.3693 -11.2511 30.5071 -10.8306 30.7827C-10.4102 31.0582 -10.082 31.4489 -9.84624 31.9545C-9.61044 32.4602 -9.49254 33.0568 -9.49254 33.7443C-9.49254 34.4375 -9.61044 35.0384 -9.84624 35.5469C-10.082 36.0526 -10.4087 36.4446 -10.8263 36.723C-11.244 36.9986 -11.7255 37.1364 -12.271 37.1364C-12.6914 37.1364 -13.0281 37.0668 -13.2809 36.9276C-13.5337 36.7855 -13.7283 36.625 -13.8647 36.446C-14.0011 36.2642 -14.1062 36.1136 -14.18 35.9943H-14.2653V39.4545H-15.271ZM-14.2823 33.7273C-14.2823 34.2216 -14.2099 34.6577 -14.065 35.0355C-13.9201 35.4105 -13.7085 35.7045 -13.43 35.9176C-13.1516 36.1278 -12.8107 36.233 -12.4073 36.233C-11.9869 36.233 -11.636 36.1222 -11.3548 35.9006C-11.0707 35.6761 -10.8576 35.375 -10.7156 34.9972C-10.5707 34.6165 -10.4982 34.1932 -10.4982 33.7273C-10.4982 33.267 -10.5692 32.8523 -10.7113 32.483C-10.8505 32.1108 -11.0621 31.8168 -11.3462 31.6009C-11.6275 31.3821 -11.9812 31.2727 -12.4073 31.2727C-12.8164 31.2727 -13.1602 31.3764 -13.4386 31.5838C-13.717 31.7884 -13.9272 32.0753 -14.0692 32.4446C-14.2113 32.8111 -14.2823 33.2386 -14.2823 33.7273ZM-3.32209 31.9205L-4.2255 32.1761C-4.28232 32.0256 -4.36612 31.8793 -4.47692 31.7372C-4.58487 31.5923 -4.7326 31.473 -4.9201 31.3793C-5.1076 31.2855 -5.34766 31.2386 -5.64027 31.2386C-6.04084 31.2386 -6.37464 31.331 -6.64169 31.5156C-6.90589 31.6974 -7.038 31.929 -7.038 32.2102C-7.038 32.4602 -6.94709 32.6577 -6.76527 32.8026C-6.58345 32.9474 -6.29936 33.0682 -5.913 33.1648L-4.94141 33.4034C-4.35618 33.5455 -3.9201 33.7628 -3.63317 34.0554C-3.34624 34.3452 -3.20277 34.7187 -3.20277 35.1761C-3.20277 35.5511 -3.31072 35.8864 -3.52663 36.1818C-3.7397 36.4773 -4.038 36.7102 -4.42152 36.8807C-4.80504 37.0511 -5.25107 37.1364 -5.75959 37.1364C-6.4272 37.1364 -6.97976 36.9915 -7.41726 36.7017C-7.85476 36.4119 -8.13175 35.9886 -8.24822 35.4318L-7.29368 35.1932C-7.20277 35.5455 -7.03089 35.8097 -6.77805 35.9858C-6.52237 36.1619 -6.18857 36.25 -5.77663 36.25C-5.30788 36.25 -4.93572 36.1506 -4.66016 35.9517C-4.38175 35.75 -4.24254 35.5085 -4.24254 35.2273C-4.24254 35 -4.32209 34.8097 -4.48118 34.6562C-4.64027 34.5 -4.88459 34.3835 -5.21413 34.3068L-6.30504 34.0511C-6.90447 33.9091 -7.34482 33.6889 -7.62607 33.3906C-7.90447 33.0895 -8.04368 32.7131 -8.04368 32.2614C-8.04368 31.892 -7.93999 31.5653 -7.7326 31.2812C-7.52237 30.9972 -7.23686 30.7741 -6.87607 30.6122C-6.51243 30.4503 -6.1005 30.3693 -5.64027 30.3693C-4.99254 30.3693 -4.48402 30.5114 -4.1147 30.7955C-3.74254 31.0795 -3.47834 31.4545 -3.32209 31.9205ZM-0.955966 37.0682C-1.16619 37.0682 -1.34659 36.9929 -1.49716 36.8423C-1.64773 36.6918 -1.72301 36.5114 -1.72301 36.3011C-1.72301 36.0909 -1.64773 35.9105 -1.49716 35.7599C-1.34659 35.6094 -1.16619 35.5341 -0.955966 35.5341C-0.745739 35.5341 -0.565341 35.6094 -0.414773 35.7599C-0.264205 35.9105 -0.18892 36.0909 -0.18892 36.3011C-0.18892 36.4403 -0.224432 36.5682 -0.295455 36.6847C-0.363636 36.8011 -0.455966 36.8949 -0.572443 36.9659C-0.686079 37.0341 -0.81392 37.0682 -0.955966 37.0682ZM-0.955966 32.2102C-1.16619 32.2102 -1.34659 32.1349 -1.49716 31.9844C-1.64773 31.8338 -1.72301 31.6534 -1.72301 31.4432C-1.72301 31.233 -1.64773 31.0526 -1.49716 30.902C-1.34659 30.7514 -1.16619 30.6761 -0.955966 30.6761C-0.745739 30.6761 -0.565341 30.7514 -0.414773 30.902C-0.264205 31.0526 -0.18892 31.233 -0.18892 31.4432C-0.18892 31.5824 -0.224432 31.7102 -0.295455 31.8267C-0.363636 31.9432 -0.455966 32.0369 -0.572443 32.108C-0.686079 32.1761 -0.81392 32.2102 -0.955966 32.2102ZM4.70099 27.8636L1.88849 38.3125H0.96804L3.78054 27.8636H4.70099ZM8.97834 27.8636L6.16584 38.3125H5.24538L8.05788 27.8636H8.97834ZM14.8068 31.9205L13.9034 32.1761C13.8466 32.0256 13.7628 31.8793 13.652 31.7372C13.544 31.5923 13.3963 31.473 13.2088 31.3793C13.0213 31.2855 12.7812 31.2386 12.4886 31.2386C12.0881 31.2386 11.7543 31.331 11.4872 31.5156C11.223 31.6974 11.0909 31.929 11.0909 32.2102C11.0909 32.4602 11.1818 32.6577 11.3636 32.8026C11.5455 32.9474 11.8295 33.0682 12.2159 33.1648L13.1875 33.4034C13.7727 33.5455 14.2088 33.7628 14.4957 34.0554C14.7827 34.3452 14.9261 34.7187 14.9261 35.1761C14.9261 35.5511 14.8182 35.8864 14.6023 36.1818C14.3892 36.4773 14.0909 36.7102 13.7074 36.8807C13.3239 37.0511 12.8778 37.1364 12.3693 37.1364C11.7017 37.1364 11.1491 36.9915 10.7116 36.7017C10.2741 36.4119 9.99716 35.9886 9.88068 35.4318L10.8352 35.1932C10.9261 35.5455 11.098 35.8097 11.3509 35.9858C11.6065 36.1619 11.9403 36.25 12.3523 36.25C12.821 36.25 13.1932 36.1506 13.4688 35.9517C13.7472 35.75 13.8864 35.5085 13.8864 35.2273C13.8864 35 13.8068 34.8097 13.6477 34.6562C13.4886 34.5 13.2443 34.3835 12.9148 34.3068L11.8239 34.0511C11.2244 33.9091 10.7841 33.6889 10.5028 33.3906C10.2244 33.0895 10.0852 32.7131 10.0852 32.2614C10.0852 31.892 10.1889 31.5653 10.3963 31.2812C10.6065 30.9972 10.892 30.7741 11.2528 30.6122C11.6165 30.4503 12.0284 30.3693 12.4886 30.3693C13.1364 30.3693 13.6449 30.5114 14.0142 30.7955C14.3864 31.0795 14.6506 31.4545 14.8068 31.9205ZM20.565 34.3239V30.4545H21.5707V37H20.565V35.892H20.4968C20.3434 36.2244 20.1048 36.5071 19.7809 36.7401C19.457 36.9702 19.0479 37.0852 18.5536 37.0852C18.1445 37.0852 17.7809 36.9957 17.4627 36.8168C17.1445 36.6349 16.8945 36.3622 16.7127 35.9986C16.5309 35.6321 16.44 35.1705 16.44 34.6136V30.4545H17.4457V34.5455C17.4457 35.0227 17.5792 35.4034 17.8462 35.6875C18.1161 35.9716 18.4599 36.1136 18.8775 36.1136C19.1275 36.1136 19.3817 36.0497 19.6403 35.9219C19.9016 35.794 20.1204 35.598 20.2965 35.3338C20.4755 35.0696 20.565 34.733 20.565 34.3239ZM23.549 37V28.2727H24.5547V31.4943H24.6399C24.7138 31.3807 24.8161 31.2358 24.9467 31.0597C25.0803 30.8807 25.2706 30.7216 25.5178 30.5824C25.7678 30.4403 26.1058 30.3693 26.532 30.3693C27.0831 30.3693 27.5689 30.5071 27.9893 30.7827C28.4098 31.0582 28.7379 31.4489 28.9737 31.9545C29.2095 32.4602 29.3274 33.0568 29.3274 33.7443C29.3274 34.4375 29.2095 35.0384 28.9737 35.5469C28.7379 36.0526 28.4112 36.4446 27.9936 36.723C27.576 36.9986 27.0945 37.1364 26.549 37.1364C26.1286 37.1364 25.7919 37.0668 25.5391 36.9276C25.2862 36.7855 25.0916 36.625 24.9553 36.446C24.8189 36.2642 24.7138 36.1136 24.6399 35.9943H24.5206V37H23.549ZM24.5376 33.7273C24.5376 34.2216 24.6101 34.6577 24.755 35.0355C24.8999 35.4105 25.1115 35.7045 25.3899 35.9176C25.6683 36.1278 26.0092 36.233 26.4126 36.233C26.8331 36.233 27.1839 36.1222 27.4652 35.9006C27.7493 35.6761 27.9624 35.375 28.1044 34.9972C28.2493 34.6165 28.3217 34.1932 28.3217 33.7273C28.3217 33.267 28.2507 32.8523 28.1087 32.483C27.9695 32.1108 27.7578 31.8168 27.4737 31.6009C27.1925 31.3821 26.8388 31.2727 26.4126 31.2727C26.0036 31.2727 25.6598 31.3764 25.3814 31.5838C25.103 31.7884 24.8928 32.0753 24.7507 32.4446C24.6087 32.8111 24.5376 33.2386 24.5376 33.7273ZM33.3374 37.1364C32.7919 37.1364 32.3104 36.9986 31.8928 36.723C31.4751 36.4446 31.1484 36.0526 30.9126 35.5469C30.6768 35.0384 30.5589 34.4375 30.5589 33.7443C30.5589 33.0568 30.6768 32.4602 30.9126 31.9545C31.1484 31.4489 31.4766 31.0582 31.897 30.7827C32.3175 30.5071 32.8033 30.3693 33.3544 30.3693C33.7805 30.3693 34.1172 30.4403 34.3643 30.5824C34.6143 30.7216 34.8047 30.8807 34.9354 31.0597C35.0689 31.2358 35.1726 31.3807 35.2464 31.4943H35.3317V28.2727H36.3374V37H35.3658V35.9943H35.2464C35.1726 36.1136 35.0675 36.2642 34.9311 36.446C34.7947 36.625 34.6001 36.7855 34.3473 36.9276C34.0945 37.0668 33.7578 37.1364 33.3374 37.1364ZM33.4737 36.233C33.8771 36.233 34.218 36.1278 34.4964 35.9176C34.7749 35.7045 34.9865 35.4105 35.1314 35.0355C35.2763 34.6577 35.3487 34.2216 35.3487 33.7273C35.3487 33.2386 35.2777 32.8111 35.1357 32.4446C34.9936 32.0753 34.7834 31.7884 34.505 31.5838C34.2266 31.3764 33.8828 31.2727 33.4737 31.2727C33.0476 31.2727 32.6925 31.3821 32.4084 31.6009C32.1271 31.8168 31.9155 32.1108 31.7734 32.483C31.6342 32.8523 31.5646 33.267 31.5646 33.7273C31.5646 34.1932 31.6357 34.6165 31.7777 34.9972C31.9226 35.375 32.1357 35.6761 32.4169 35.9006C32.701 36.1222 33.0533 36.233 33.4737 36.233ZM40.978 37.1364C40.3871 37.1364 39.8686 36.9957 39.4226 36.7145C38.9794 36.4332 38.6328 36.0398 38.3828 35.5341C38.1357 35.0284 38.0121 34.4375 38.0121 33.7614C38.0121 33.0795 38.1357 32.4844 38.3828 31.9759C38.6328 31.4673 38.9794 31.0724 39.4226 30.7912C39.8686 30.5099 40.3871 30.3693 40.978 30.3693C41.5689 30.3693 42.0859 30.5099 42.5291 30.7912C42.9751 31.0724 43.3217 31.4673 43.5689 31.9759C43.8189 32.4844 43.9439 33.0795 43.9439 33.7614C43.9439 34.4375 43.8189 35.0284 43.5689 35.5341C43.3217 36.0398 42.9751 36.4332 42.5291 36.7145C42.0859 36.9957 41.5689 37.1364 40.978 37.1364ZM40.978 36.233C41.4268 36.233 41.7962 36.1179 42.0859 35.8878C42.3757 35.6577 42.5902 35.3551 42.7294 34.9801C42.8686 34.6051 42.9382 34.1989 42.9382 33.7614C42.9382 33.3239 42.8686 32.9162 42.7294 32.5384C42.5902 32.1605 42.3757 31.8551 42.0859 31.6222C41.7962 31.3892 41.4268 31.2727 40.978 31.2727C40.5291 31.2727 40.1598 31.3892 39.87 31.6222C39.5803 31.8551 39.3658 32.1605 39.2266 32.5384C39.0874 32.9162 39.0178 33.3239 39.0178 33.7614C39.0178 34.1989 39.0874 34.6051 39.2266 34.9801C39.3658 35.3551 39.5803 35.6577 39.87 35.8878C40.1598 36.1179 40.5291 36.233 40.978 36.233ZM45.479 37V30.4545H46.4506V31.4773H46.5359C46.6722 31.1278 46.8924 30.8565 47.1964 30.6634C47.5004 30.4673 47.8654 30.3693 48.2915 30.3693C48.7234 30.3693 49.0827 30.4673 49.3697 30.6634C49.6594 30.8565 49.8853 31.1278 50.0472 31.4773H50.1154C50.283 31.1392 50.5344 30.8707 50.8697 30.6719C51.2049 30.4702 51.6069 30.3693 52.0756 30.3693C52.6609 30.3693 53.1396 30.5526 53.5117 30.919C53.8839 31.2827 54.07 31.8494 54.07 32.6193V37H53.0643V32.6193C53.0643 32.1364 52.9322 31.7912 52.668 31.5838C52.4038 31.3764 52.0927 31.2727 51.7347 31.2727C51.2745 31.2727 50.918 31.4119 50.6651 31.6903C50.4123 31.9659 50.2859 32.3153 50.2859 32.7386V37H49.2631V32.517C49.2631 32.1449 49.1424 31.8452 48.9009 31.6179C48.6594 31.3878 48.3484 31.2727 47.9677 31.2727C47.7063 31.2727 47.462 31.3423 47.2347 31.4815C47.0103 31.6207 46.8285 31.8139 46.6893 32.0611C46.5529 32.3054 46.4847 32.5881 46.4847 32.9091V37H45.479ZM57.8349 37.1534C57.4201 37.1534 57.0437 37.0753 56.7056 36.919C56.3675 36.7599 56.0991 36.5312 55.9002 36.233C55.7013 35.9318 55.6019 35.5682 55.6019 35.142C55.6019 34.767 55.6758 34.4631 55.8235 34.2301C55.9712 33.9943 56.1687 33.8097 56.4158 33.6761C56.663 33.5426 56.9357 33.4432 57.234 33.3778C57.5352 33.3097 57.8377 33.2557 58.1417 33.2159C58.5394 33.1648 58.8619 33.1264 59.109 33.1009C59.359 33.0724 59.5408 33.0256 59.6545 32.9602C59.771 32.8949 59.8292 32.7812 59.8292 32.6193V32.5852C59.8292 32.1648 59.7141 31.8381 59.484 31.6051C59.2567 31.3722 58.9116 31.2557 58.4485 31.2557C57.9684 31.2557 57.592 31.3608 57.3192 31.571C57.0465 31.7812 56.8548 32.0057 56.744 32.2443L55.7894 31.9034C55.9599 31.5057 56.1871 31.196 56.4712 30.9744C56.7582 30.75 57.0707 30.5937 57.4087 30.5057C57.7496 30.4148 58.0849 30.3693 58.4144 30.3693C58.6246 30.3693 58.8661 30.3949 59.1388 30.446C59.4144 30.4943 59.68 30.5952 59.9357 30.7486C60.1942 30.902 60.4087 31.1335 60.5792 31.4432C60.7496 31.7528 60.8349 32.1676 60.8349 32.6875V37H59.8292V36.1136H59.7781C59.7099 36.2557 59.5962 36.4077 59.4371 36.5696C59.2781 36.7315 59.0664 36.8693 58.8022 36.983C58.538 37.0966 58.2156 37.1534 57.8349 37.1534ZM57.9883 36.25C58.386 36.25 58.7212 36.1719 58.994 36.0156C59.2695 35.8594 59.4769 35.6577 59.6161 35.4105C59.7582 35.1634 59.8292 34.9034 59.8292 34.6307V33.7102C59.7866 33.7614 59.6928 33.8082 59.5479 33.8509C59.4059 33.8906 59.2411 33.9261 59.0536 33.9574C58.869 33.9858 58.6886 34.0114 58.5124 34.0341C58.3391 34.054 58.1985 34.071 58.0906 34.0852C57.8292 34.1193 57.5849 34.1747 57.3576 34.2514C57.1332 34.3253 56.9513 34.4375 56.8121 34.5881C56.6758 34.7358 56.6076 34.9375 56.6076 35.1932C56.6076 35.5426 56.7369 35.8068 56.9954 35.9858C57.2567 36.1619 57.5877 36.25 57.9883 36.25ZM62.6705 37V30.4545H63.6761V37H62.6705ZM63.1818 29.3636C62.9858 29.3636 62.8168 29.2969 62.6747 29.1634C62.5355 29.0298 62.4659 28.8693 62.4659 28.6818C62.4659 28.4943 62.5355 28.3338 62.6747 28.2003C62.8168 28.0668 62.9858 28 63.1818 28C63.3778 28 63.5455 28.0668 63.6847 28.2003C63.8267 28.3338 63.8977 28.4943 63.8977 28.6818C63.8977 28.8693 63.8267 29.0298 63.6847 29.1634C63.5455 29.2969 63.3778 29.3636 63.1818 29.3636ZM66.5238 33.0625V37H65.5181V30.4545H66.4897V31.4773H66.5749C66.7283 31.1449 66.9613 30.8778 67.2738 30.6761C67.5863 30.4716 67.9897 30.3693 68.484 30.3693C68.9272 30.3693 69.315 30.4602 69.6474 30.642C69.9798 30.821 70.2383 31.0938 70.4229 31.4602C70.6076 31.8239 70.6999 32.2841 70.6999 32.8409V37H69.6942V32.9091C69.6942 32.3949 69.5607 31.9943 69.2937 31.7074C69.0266 31.4176 68.6602 31.2727 68.1942 31.2727C67.8732 31.2727 67.5863 31.3423 67.3335 31.4815C67.0835 31.6207 66.886 31.8239 66.7411 32.0909C66.5962 32.358 66.5238 32.6818 66.5238 33.0625ZM73.2706 37.0682C73.0604 37.0682 72.88 36.9929 72.7294 36.8423C72.5788 36.6918 72.5036 36.5114 72.5036 36.3011C72.5036 36.0909 72.5788 35.9105 72.7294 35.7599C72.88 35.6094 73.0604 35.5341 73.2706 35.5341C73.4808 35.5341 73.6612 35.6094 73.8118 35.7599C73.9624 35.9105 74.0376 36.0909 74.0376 36.3011C74.0376 36.4403 74.0021 36.5682 73.9311 36.6847C73.8629 36.8011 73.7706 36.8949 73.6541 36.9659C73.5405 37.0341 73.4126 37.0682 73.2706 37.0682ZM75.8423 39.4545V30.4545H76.8139V31.4943H76.9332C77.0071 31.3807 77.1094 31.2358 77.2401 31.0597C77.3736 30.8807 77.5639 30.7216 77.8111 30.5824C78.0611 30.4403 78.3991 30.3693 78.8253 30.3693C79.3764 30.3693 79.8622 30.5071 80.2827 30.7827C80.7031 31.0582 81.0313 31.4489 81.267 31.9545C81.5028 32.4602 81.6207 33.0568 81.6207 33.7443C81.6207 34.4375 81.5028 35.0384 81.267 35.5469C81.0313 36.0526 80.7045 36.4446 80.2869 36.723C79.8693 36.9986 79.3878 37.1364 78.8423 37.1364C78.4219 37.1364 78.0852 37.0668 77.8324 36.9276C77.5795 36.7855 77.3849 36.625 77.2486 36.446C77.1122 36.2642 77.0071 36.1136 76.9332 35.9943H76.848V39.4545H75.8423ZM76.831 33.7273C76.831 34.2216 76.9034 34.6577 77.0483 35.0355C77.1932 35.4105 77.4048 35.7045 77.6832 35.9176C77.9616 36.1278 78.3026 36.233 78.706 36.233C79.1264 36.233 79.4773 36.1222 79.7585 35.9006C80.0426 35.6761 80.2557 35.375 80.3977 34.9972C80.5426 34.6165 80.6151 34.1932 80.6151 33.7273C80.6151 33.267 80.544 32.8523 80.402 32.483C80.2628 32.1108 80.0511 31.8168 79.767 31.6009C79.4858 31.3821 79.1321 31.2727 78.706 31.2727C78.2969 31.2727 77.9531 31.3764 77.6747 31.5838C77.3963 31.7884 77.1861 32.0753 77.044 32.4446C76.902 32.8111 76.831 33.2386 76.831 33.7273ZM85.081 37.1534C84.6662 37.1534 84.2898 37.0753 83.9517 36.919C83.6136 36.7599 83.3452 36.5312 83.1463 36.233C82.9474 35.9318 82.848 35.5682 82.848 35.142C82.848 34.767 82.9219 34.4631 83.0696 34.2301C83.2173 33.9943 83.4148 33.8097 83.6619 33.6761C83.9091 33.5426 84.1818 33.4432 84.4801 33.3778C84.7813 33.3097 85.0838 33.2557 85.3878 33.2159C85.7855 33.1648 86.108 33.1264 86.3551 33.1009C86.6051 33.0724 86.7869 33.0256 86.9006 32.9602C87.017 32.8949 87.0753 32.7812 87.0753 32.6193V32.5852C87.0753 32.1648 86.9602 31.8381 86.7301 31.6051C86.5028 31.3722 86.1577 31.2557 85.6946 31.2557C85.2145 31.2557 84.8381 31.3608 84.5653 31.571C84.2926 31.7812 84.1009 32.0057 83.9901 32.2443L83.0355 31.9034C83.206 31.5057 83.4332 31.196 83.7173 30.9744C84.0043 30.75 84.3168 30.5937 84.6548 30.5057C84.9957 30.4148 85.331 30.3693 85.6605 30.3693C85.8707 30.3693 86.1122 30.3949 86.3849 30.446C86.6605 30.4943 86.9261 30.5952 87.1818 30.7486C87.4403 30.902 87.6548 31.1335 87.8253 31.4432C87.9957 31.7528 88.081 32.1676 88.081 32.6875V37H87.0753V36.1136H87.0241C86.956 36.2557 86.8423 36.4077 86.6832 36.5696C86.5241 36.7315 86.3125 36.8693 86.0483 36.983C85.7841 37.0966 85.4616 37.1534 85.081 37.1534ZM85.2344 36.25C85.6321 36.25 85.9673 36.1719 86.2401 36.0156C86.5156 35.8594 86.723 35.6577 86.8622 35.4105C87.0043 35.1634 87.0753 34.9034 87.0753 34.6307V33.7102C87.0327 33.7614 86.9389 33.8082 86.794 33.8509C86.652 33.8906 86.4872 33.9261 86.2997 33.9574C86.1151 33.9858 85.9347 34.0114 85.7585 34.0341C85.5852 34.054 85.4446 34.071 85.3366 34.0852C85.0753 34.1193 84.831 34.1747 84.6037 34.2514C84.3793 34.3253 84.1974 34.4375 84.0582 34.5881C83.9219 34.7358 83.8537 34.9375 83.8537 35.1932C83.8537 35.5426 83.983 35.8068 84.2415 35.9858C84.5028 36.1619 84.8338 36.25 85.2344 36.25ZM90.3299 39.4545C90.1594 39.4545 90.0075 39.4403 89.8739 39.4119C89.7404 39.3864 89.6481 39.3608 89.5969 39.3352L89.8526 38.4489C90.0969 38.5114 90.3129 38.5341 90.5004 38.517C90.6879 38.5 90.854 38.4162 90.9989 38.2656C91.1467 38.1179 91.2816 37.8778 91.4038 37.5455L91.5913 37.0341L89.1708 30.4545H90.2617L92.0685 35.6705H92.1367L93.9435 30.4545H95.0344L92.256 37.9545C92.131 38.2926 91.9762 38.5724 91.7915 38.794C91.6069 39.0185 91.3924 39.1847 91.1481 39.2926C90.9066 39.4006 90.6339 39.4545 90.3299 39.4545ZM96.4982 37V28.2727H97.5039V31.4943H97.5891C97.663 31.3807 97.7653 31.2358 97.896 31.0597C98.0295 30.8807 98.2198 30.7216 98.467 30.5824C98.717 30.4403 99.055 30.3693 99.4812 30.3693C100.032 30.3693 100.518 30.5071 100.939 30.7827C101.359 31.0582 101.687 31.4489 101.923 31.9545C102.159 32.4602 102.277 33.0568 102.277 33.7443C102.277 34.4375 102.159 35.0384 101.923 35.5469C101.687 36.0526 101.36 36.4446 100.943 36.723C100.525 36.9986 100.044 37.1364 99.4982 37.1364C99.0778 37.1364 98.7411 37.0668 98.4883 36.9276C98.2354 36.7855 98.0408 36.625 97.9045 36.446C97.7681 36.2642 97.663 36.1136 97.5891 35.9943H97.4698V37H96.4982ZM97.4869 33.7273C97.4869 34.2216 97.5593 34.6577 97.7042 35.0355C97.8491 35.4105 98.0607 35.7045 98.3391 35.9176C98.6175 36.1278 98.9585 36.233 99.3619 36.233C99.7823 36.233 100.133 36.1222 100.414 35.9006C100.699 35.6761 100.912 35.375 101.054 34.9972C101.199 34.6165 101.271 34.1932 101.271 33.7273C101.271 33.267 101.2 32.8523 101.058 32.483C100.919 32.1108 100.707 31.8168 100.423 31.6009C100.142 31.3821 99.788 31.2727 99.3619 31.2727C98.9528 31.2727 98.609 31.3764 98.3306 31.5838C98.0522 31.7884 97.842 32.0753 97.6999 32.4446C97.5579 32.8111 97.4869 33.2386 97.4869 33.7273ZM103.815 37V30.4545H104.821V37H103.815ZM104.326 29.3636C104.13 29.3636 103.961 29.2969 103.819 29.1634C103.68 29.0298 103.61 28.8693 103.61 28.6818C103.61 28.4943 103.68 28.3338 103.819 28.2003C103.961 28.0668 104.13 28 104.326 28C104.522 28 104.69 28.0668 104.829 28.2003C104.971 28.3338 105.042 28.4943 105.042 28.6818C105.042 28.8693 104.971 29.0298 104.829 29.1634C104.69 29.2969 104.522 29.3636 104.326 29.3636ZM107.668 28.2727V37H106.663V28.2727H107.668ZM110.516 28.2727V37H109.51V28.2727H110.516ZM113.091 37.0682C112.881 37.0682 112.7 36.9929 112.55 36.8423C112.399 36.6918 112.324 36.5114 112.324 36.3011C112.324 36.0909 112.399 35.9105 112.55 35.7599C112.7 35.6094 112.881 35.5341 113.091 35.5341C113.301 35.5341 113.482 35.6094 113.632 35.7599C113.783 35.9105 113.858 36.0909 113.858 36.3011C113.858 36.4403 113.822 36.5682 113.751 36.6847C113.683 36.8011 113.591 36.8949 113.474 36.9659C113.361 37.0341 113.233 37.0682 113.091 37.0682ZM118.134 37.1364C117.589 37.1364 117.107 36.9986 116.69 36.723C116.272 36.4446 115.945 36.0526 115.71 35.5469C115.474 35.0384 115.356 34.4375 115.356 33.7443C115.356 33.0568 115.474 32.4602 115.71 31.9545C115.945 31.4489 116.273 31.0582 116.694 30.7827C117.114 30.5071 117.6 30.3693 118.151 30.3693C118.577 30.3693 118.914 30.4403 119.161 30.5824C119.411 30.7216 119.602 30.8807 119.732 31.0597C119.866 31.2358 119.969 31.3807 120.043 31.4943H120.129V28.2727H121.134V37H120.163V35.9943H120.043C119.969 36.1136 119.864 36.2642 119.728 36.446C119.592 36.625 119.397 36.7855 119.144 36.9276C118.891 37.0668 118.555 37.1364 118.134 37.1364ZM118.271 36.233C118.674 36.233 119.015 36.1278 119.293 35.9176C119.572 35.7045 119.783 35.4105 119.928 35.0355C120.073 34.6577 120.146 34.2216 120.146 33.7273C120.146 33.2386 120.075 32.8111 119.933 32.4446C119.79 32.0753 119.58 31.7884 119.302 31.5838C119.023 31.3764 118.68 31.2727 118.271 31.2727C117.844 31.2727 117.489 31.3821 117.205 31.6009C116.924 31.8168 116.712 32.1108 116.57 32.483C116.431 32.8523 116.362 33.267 116.362 33.7273C116.362 34.1932 116.433 34.6165 116.575 34.9972C116.719 35.375 116.933 35.6761 117.214 35.9006C117.498 36.1222 117.85 36.233 118.271 36.233ZM125.86 37.1364C125.229 37.1364 124.685 36.9972 124.228 36.7188C123.773 36.4375 123.423 36.0455 123.175 35.5426C122.931 35.0369 122.809 34.4489 122.809 33.7784C122.809 33.108 122.931 32.517 123.175 32.0057C123.423 31.4915 123.766 31.0909 124.207 30.804C124.65 30.5142 125.167 30.3693 125.758 30.3693C126.099 30.3693 126.435 30.4261 126.768 30.5398C127.1 30.6534 127.403 30.8381 127.675 31.0938C127.948 31.3466 128.165 31.6818 128.327 32.0994C128.489 32.517 128.57 33.0312 128.57 33.642V34.0682H123.525V33.1989H127.548C127.548 32.8295 127.474 32.5 127.326 32.2102C127.181 31.9205 126.974 31.6918 126.704 31.5241C126.437 31.3565 126.121 31.2727 125.758 31.2727C125.357 31.2727 125.011 31.3722 124.718 31.571C124.428 31.767 124.205 32.0227 124.049 32.3381C123.893 32.6534 123.815 32.9915 123.815 33.3523V33.9318C123.815 34.4261 123.9 34.8452 124.07 35.1889C124.244 35.5298 124.484 35.7898 124.79 35.9688C125.097 36.1449 125.454 36.233 125.86 36.233C126.124 36.233 126.363 36.196 126.576 36.1222C126.792 36.0455 126.978 35.9318 127.134 35.7812C127.29 35.6278 127.411 35.4375 127.496 35.2102L128.468 35.483C128.366 35.8125 128.194 36.1023 127.952 36.3523C127.711 36.5994 127.413 36.7926 127.058 36.9318C126.702 37.0682 126.303 37.1364 125.86 37.1364ZM135.253 30.4545L132.833 37H131.81L129.39 30.4545H130.48L132.287 35.6705H132.355L134.162 30.4545H135.253Z" fill="white"/>
</g>
</g>
<defs>
<clipPath id="clip0_71_2">
<rect width="159" height="104" fill="white"/>
</clipPath>
</defs>
</svg>
